<svg width="49" height="44" viewBox="0 0 49 44" fill="none" xmlns="http://www.w3.org/2000/svg">
<mask id="mask0_341_14" style="mask-type:alpha" maskUnits="userSpaceOnUse" x="0" y="0" width="48" height="44">
<path d="M9.26278 15H7.28551L10.2983 6.27273H12.6761L15.6847 15H13.7074L11.5213 8.26705H11.4531L9.26278 15ZM9.1392 11.5696H13.8097V13.0099H9.1392V11.5696ZM16.7351 15V6.27273H20.1783C20.8402 6.27273 21.4041 6.39915 21.87 6.65199C22.3359 6.90199 22.6911 7.25 22.9354 7.69602C23.1825 8.1392 23.3061 8.65057 23.3061 9.23011C23.3061 9.80966 23.1811 10.321 22.9311 10.7642C22.6811 11.2074 22.3189 11.5526 21.8445 11.7997C21.3729 12.0469 20.8018 12.1705 20.1314 12.1705H17.9368V10.6918H19.8331C20.1882 10.6918 20.4808 10.6307 20.7109 10.5085C20.9439 10.3835 21.1172 10.2116 21.2308 9.9929C21.3473 9.77131 21.4055 9.51705 21.4055 9.23011C21.4055 8.94034 21.3473 8.6875 21.2308 8.47159C21.1172 8.25284 20.9439 8.08381 20.7109 7.96449C20.478 7.84233 20.1825 7.78125 19.8246 7.78125H18.5803V15H16.7351ZM26.3498 6.27273V15H24.5046V6.27273H26.3498Z" fill="white"/>
<path d="M31.0881 28.4545H34.1278V38.5966C34.1278 39.5341 33.9171 40.3485 33.4957 41.0398C33.0791 41.7311 32.4991 42.2637 31.7557 42.6378C31.0123 43.0118 30.1482 43.1989 29.1634 43.1989C28.2874 43.1989 27.492 43.045 26.777 42.7372C26.0668 42.4247 25.5033 41.9512 25.0866 41.3168C24.67 40.6776 24.464 39.875 24.4688 38.9091H27.5298C27.5393 39.2926 27.6174 39.6217 27.7642 39.8963C27.9157 40.1662 28.1217 40.3745 28.3821 40.5213C28.6473 40.6634 28.9598 40.7344 29.3196 40.7344C29.6984 40.7344 30.018 40.6539 30.2784 40.4929C30.5436 40.3272 30.7448 40.0857 30.8821 39.7685C31.0194 39.4512 31.0881 39.0606 31.0881 38.5966V28.4545ZM44.5611 32.6378C44.5043 32.0649 44.2604 31.6198 43.8295 31.3026C43.3987 30.9853 42.8139 30.8267 42.0753 30.8267C41.5734 30.8267 41.1496 30.8977 40.804 31.0398C40.4583 31.1771 40.1932 31.3688 40.0085 31.6151C39.8286 31.8613 39.7386 32.1406 39.7386 32.4531C39.7292 32.7135 39.7836 32.9408 39.902 33.1349C40.0251 33.3291 40.1932 33.4972 40.4062 33.6392C40.6193 33.7765 40.8655 33.8973 41.1449 34.0014C41.4242 34.1009 41.7225 34.1861 42.0398 34.2571L43.3466 34.5696C43.9811 34.7116 44.5634 34.901 45.0938 35.1378C45.6241 35.3745 46.0833 35.6657 46.4716 36.0114C46.8598 36.357 47.1605 36.7642 47.3736 37.233C47.5914 37.7017 47.7027 38.2391 47.7074 38.8452C47.7027 39.7353 47.4754 40.5071 47.0256 41.1605C46.5805 41.8092 45.9366 42.3134 45.0938 42.6733C44.2557 43.0284 43.2448 43.206 42.0611 43.206C40.8868 43.206 39.8641 43.026 38.9929 42.6662C38.1264 42.3063 37.4493 41.7737 36.9616 41.0682C36.4787 40.358 36.2254 39.4796 36.2017 38.4332H39.1776C39.2107 38.9209 39.3504 39.3281 39.5966 39.6548C39.8475 39.9768 40.1813 40.2206 40.598 40.3864C41.0194 40.5473 41.4953 40.6278 42.0256 40.6278C42.5464 40.6278 42.9986 40.5521 43.3821 40.4006C43.7704 40.2491 44.071 40.0384 44.2841 39.7685C44.4972 39.4986 44.6037 39.1884 44.6037 38.8381C44.6037 38.5114 44.5066 38.2367 44.3125 38.0142C44.1231 37.7917 43.8438 37.6023 43.4744 37.446C43.1098 37.2898 42.6624 37.1477 42.1321 37.0199L40.5483 36.6222C39.322 36.3239 38.3537 35.8575 37.6435 35.223C36.9332 34.5885 36.5805 33.7339 36.5852 32.6591C36.5805 31.7784 36.8149 31.009 37.2884 30.3509C37.7666 29.6927 38.4223 29.179 39.2557 28.8097C40.089 28.4403 41.036 28.2557 42.0966 28.2557C43.1761 28.2557 44.1184 28.4403 44.9233 28.8097C45.733 29.179 46.3627 29.6927 46.8125 30.3509C47.2623 31.009 47.4943 31.7713 47.5085 32.6378H44.5611Z" fill="white" fill-opacity="0.3"/>
<path d="M4.19824 27.7148H5.79736M7.2511 27.7148H8.99559M10.4493 27.7148H12.0485M18.4449 41H1V23.2383H15.5374L19.4626 18.9061H34V25.4043M5.07048 21.361V1H29.9295V17.0289" stroke="white" stroke-width="0.9437" stroke-miterlimit="10" stroke-linejoin="round"/>
</mask>
<g mask="url(#mask0_341_14)">
<rect x="-6" y="-10" width="59" height="59" rx="9" fill="url(#paint0_linear_341_14)"/>
</g>
<defs>
<linearGradient id="paint0_linear_341_14" x1="-6" y1="-5" x2="53" y2="49" gradientUnits="userSpaceOnUse">
<stop stop-color="#95DF5B"/>
<stop offset="0.979167" stop-color="#35BC94"/>
</linearGradient>
</defs>
</svg>
