<svg width="31" height="31" viewBox="0 0 31 31" fill="none" xmlns="http://www.w3.org/2000/svg">
<g clip-path="url(#clip0_98_14)">
<path d="M31 15.5C31 12.4344 30.0909 9.43763 28.3878 6.88867C26.6846 4.33971 24.2639 2.35303 21.4316 1.17987C18.5993 0.00671593 15.4828 -0.300236 12.4761 0.297835C9.4694 0.895906 6.70757 2.37214 4.53985 4.53985C2.37214 6.70757 0.895906 9.4694 0.297835 12.4761C-0.300236 15.4828 0.00671593 18.5993 1.17987 21.4316C2.35303 24.2639 4.33971 26.6846 6.88867 28.3878C9.43763 30.0909 12.4344 31 15.5 31C19.6095 30.9956 23.5494 29.3611 26.4553 26.4553C29.3611 23.5494 30.9956 19.6095 31 15.5ZM12.2256 22.8715L7.59372 18.2396C7.23382 17.8798 6.94833 17.4526 6.75355 16.9824C6.55877 16.5122 6.45852 16.0083 6.45852 15.4994C6.45852 14.9904 6.55877 14.4865 6.75355 14.0163C6.94833 13.5461 7.23382 13.1189 7.59372 12.7591L12.2256 8.12846L12.2579 8.09746C12.3788 7.97435 12.5231 7.87669 12.6823 7.81025C12.8415 7.74381 13.0124 7.70993 13.1849 7.71063C13.3574 7.71132 13.5281 7.74657 13.6867 7.81428C13.8454 7.882 13.9889 7.98082 14.1088 8.1049C14.2286 8.22899 14.3224 8.37582 14.3846 8.53675C14.4468 8.69767 14.4761 8.86942 14.4708 9.04186C14.4655 9.2143 14.4257 9.38393 14.3538 9.54074C14.2819 9.69755 14.1793 9.83837 14.052 9.95488L9.79859 14.2083L23.25 14.1993C23.5926 14.1993 23.9211 14.3354 24.1634 14.5776C24.4056 14.8199 24.5417 15.1484 24.5417 15.491C24.5417 15.8335 24.4056 16.1621 24.1634 16.4043C23.9211 16.6465 23.5926 16.7826 23.25 16.7826L9.79988 16.7917L14.052 21.0451C14.1754 21.1643 14.2738 21.3068 14.3415 21.4644C14.4092 21.622 14.4448 21.7915 14.4463 21.963C14.4478 22.1345 14.4151 22.3046 14.3502 22.4633C14.2852 22.6221 14.1893 22.7663 14.0681 22.8876C13.9468 23.0088 13.8026 23.1047 13.6438 23.1697C13.4851 23.2346 13.315 23.2673 13.1435 23.2658C12.972 23.2643 12.8025 23.2287 12.6449 23.161C12.4873 23.0933 12.3448 22.9949 12.2256 22.8715Z" fill="#E1E1E1" fill-opacity="0.7"/>
</g>
<defs>
<clipPath id="clip0_98_14">
<rect width="31" height="31" fill="white"/>
</clipPath>
</defs>
</svg>
