<svg width="30" height="30" viewBox="0 0 30 30" fill="none" xmlns="http://www.w3.org/2000/svg">
<path d="M28.7188 10.8674L19.8613 2.00992C17.1745 -0.669974 12.8256 -0.669974 10.1388 2.00992L1.28128 10.8674C0.45816 11.6861 -0.00320588 12.8001 1.67699e-05 13.9611V26.9336C0.00277067 28.6269 1.3755 29.9985 3.0688 29.9999H26.9312C28.6245 29.9985 29.9972 28.6269 30 26.9336V13.9611C30.0032 12.8001 29.5419 11.6861 28.7188 10.8674ZM26.25 26.2499H20V22.2724C20 19.6366 17.8633 17.4999 15.2275 17.4999H14.7725C12.1368 17.4999 10 19.6366 10 22.2724V26.2499H3.75001V13.9611C3.75042 13.7954 3.81593 13.6365 3.93253 13.5186L12.79 4.66117C14.0102 3.4406 15.9889 3.44037 17.2094 4.66058C17.2096 4.66076 17.2098 4.66099 17.21 4.66117L26.0675 13.5186C26.184 13.6365 26.2496 13.7954 26.25 13.9611V26.2499H26.25Z" fill="url(#paint0_linear_89_4286)"/>
<defs>
<linearGradient id="paint0_linear_89_4286" x1="2.13039e-07" y1="14.9998" x2="30" y2="14.9998" gradientUnits="userSpaceOnUse">
<stop stop-color="#E94560"/>
<stop offset="1" stop-color="#FD7014"/>
</linearGradient>
</defs>
</svg>
