<svg width="61" height="61" viewBox="0 0 61 61" fill="none" xmlns="http://www.w3.org/2000/svg">
<g clip-path="url(#clip0_354_2)">
<path d="M22.9258 0H22.875C18.0458 0 14.0046 3.38042 12.9625 7.87917C8.46375 8.92125 5.08333 12.9625 5.08333 17.7917V17.8425C1.90625 20.2317 0 23.9679 0 27.9583C0 30.2204 0.61 32.3808 1.75375 34.3125C0.61 36.2442 0 38.4046 0 40.6667C0 44.9621 2.18583 48.9017 5.76958 51.2654C7.59958 57.0604 12.9117 61 19.0625 61C20.1554 61 21.2229 60.8729 22.2396 60.6442C25.62 59.8563 27.9583 56.73 27.9583 53.2479V5.0325C27.9583 2.26208 25.7217 0 22.9258 0ZM33.0417 5.0325V53.2479C33.0417 56.73 35.38 59.8563 38.7604 60.6442C39.7771 60.8729 40.8446 61 41.9375 61C48.0883 61 53.4004 57.035 55.2304 51.2654C58.8142 48.9271 61 44.9621 61 40.6667C61 38.4046 60.39 36.2442 59.2463 34.3125C60.39 32.3808 61 30.2204 61 27.9583C61 23.9679 59.0938 20.2317 55.9167 17.8425V17.7917C55.9167 12.9625 52.5363 8.92125 48.0375 7.87917C46.9954 3.38042 42.9542 0 38.125 0H38.0742C35.3037 0 33.0417 2.26208 33.0417 5.0325Z" fill="#E94560"/>
<path d="M6.79261 32.9432V31.4517C7.75852 31.4517 8.43182 31.2557 8.8125 30.8636C9.19886 30.4659 9.39205 29.821 9.39205 28.929V26.7557C9.39205 25.7955 9.51136 25.0085 9.75 24.3949C9.99432 23.7812 10.3494 23.304 10.8153 22.9631C11.2813 22.6222 11.8494 22.3864 12.5199 22.2557C13.1903 22.1193 13.9517 22.0511 14.804 22.0511V24.4205C14.1335 24.4205 13.6193 24.5142 13.2614 24.7017C12.9034 24.8835 12.6562 25.1648 12.5199 25.5455C12.3892 25.9261 12.3239 26.4119 12.3239 27.0028V29.7983C12.3239 30.2358 12.25 30.6449 12.1023 31.0256C11.9545 31.4062 11.6847 31.7415 11.2926 32.0312C10.9006 32.3153 10.3409 32.5398 9.61364 32.7045C8.89205 32.8636 7.9517 32.9432 6.79261 32.9432ZM14.804 43.7074C13.9517 43.7074 13.1903 43.6392 12.5199 43.5028C11.8494 43.3722 11.2813 43.1364 10.8153 42.7955C10.3494 42.4545 9.99432 41.9773 9.75 41.3636C9.51136 40.75 9.39205 39.9631 9.39205 39.0028V36.8381C9.39205 35.946 9.19886 35.304 8.8125 34.9119C8.43182 34.5142 7.75852 34.3153 6.79261 34.3153V32.8239C7.9517 32.8239 8.89205 32.9062 9.61364 33.071C10.3409 33.2301 10.9006 33.4545 11.2926 33.7443C11.6847 34.0284 11.9545 34.3608 12.1023 34.7415C12.25 35.1222 12.3239 35.5284 12.3239 35.9602V38.7557C12.3239 39.3466 12.3892 39.8324 12.5199 40.2131C12.6562 40.5938 12.9034 40.8778 13.2614 41.0653C13.6193 41.2528 14.1335 41.3466 14.804 41.3466V43.7074ZM6.79261 34.3153V31.4517H9.49432V34.3153H6.79261ZM53.8615 32.8239V34.3153C52.8956 34.3153 52.2195 34.5142 51.8331 34.9119C51.4524 35.304 51.2621 35.946 51.2621 36.8381V39.0028C51.2621 39.9631 51.1399 40.75 50.8956 41.3636C50.657 41.9773 50.3047 42.4545 49.8388 42.7955C49.3729 43.1364 48.8047 43.3722 48.1342 43.5028C47.4638 43.6392 46.7024 43.7074 45.8501 43.7074V41.3466C46.5206 41.3466 47.0348 41.2528 47.3928 41.0653C47.7507 40.8778 47.995 40.5938 48.1257 40.2131C48.2621 39.8324 48.3303 39.3466 48.3303 38.7557V35.9602C48.3303 35.5284 48.4041 35.1222 48.5518 34.7415C48.6996 34.3608 48.9695 34.0284 49.3615 33.7443C49.7536 33.4545 50.3104 33.2301 51.032 33.071C51.7592 32.9062 52.7024 32.8239 53.8615 32.8239ZM45.8501 22.0511C46.7024 22.0511 47.4638 22.1193 48.1342 22.2557C48.8047 22.3864 49.3729 22.6222 49.8388 22.9631C50.3047 23.304 50.657 23.7812 50.8956 24.3949C51.1399 25.0085 51.2621 25.7955 51.2621 26.7557V28.929C51.2621 29.821 51.4524 30.4659 51.8331 30.8636C52.2195 31.2557 52.8956 31.4517 53.8615 31.4517V32.9432C52.7024 32.9432 51.7592 32.8636 51.032 32.7045C50.3104 32.5398 49.7536 32.3153 49.3615 32.0312C48.9695 31.7415 48.6996 31.4062 48.5518 31.0256C48.4041 30.6449 48.3303 30.2358 48.3303 29.7983V27.0028C48.3303 26.4119 48.2621 25.9261 48.1257 25.5455C47.995 25.1648 47.7507 24.8835 47.3928 24.7017C47.0348 24.5142 46.5206 24.4205 45.8501 24.4205V22.0511ZM53.8615 31.4517V34.3153H51.1598V31.4517H53.8615Z" fill="white"/>
</g>
<defs>
<clipPath id="clip0_354_2">
<rect width="61" height="61" fill="white"/>
</clipPath>
</defs>
</svg>
