<svg width="60" height="60" viewBox="0 0 60 60" fill="none" xmlns="http://www.w3.org/2000/svg">
<g clip-path="url(#clip0_34_1889)">
<path d="M45 32.5C42.8011 32.4924 40.6614 33.2122 38.9141 34.5472C37.1668 35.8822 35.91 37.7575 35.3395 39.8812C34.7689 42.0048 34.9166 44.2575 35.7596 46.2884C36.6025 48.3193 38.0934 50.0145 40 51.11V58.1925C39.9998 58.5491 40.1055 58.8978 40.3035 59.1944C40.5016 59.491 40.7831 59.7221 41.1126 59.8586C41.4421 59.9951 41.8046 60.0308 42.1544 59.9612C42.5042 59.8916 42.8254 59.7198 43.0775 59.4675L45 57.5475L46.9225 59.4675C47.1746 59.7198 47.4958 59.8916 47.8456 59.9612C48.1954 60.0308 48.5579 59.9951 48.8874 59.8586C49.2169 59.7221 49.4985 59.491 49.6965 59.1944C49.8946 58.8978 50.0002 58.5491 50 58.1925V51.11C51.9066 50.0145 53.3975 48.3193 54.2405 46.2884C55.0834 44.2575 55.2311 42.0048 54.6605 39.8812C54.09 37.7575 52.8332 35.8822 51.0859 34.5472C49.3386 33.2122 47.1989 32.4924 45 32.5Z" fill="url(#paint0_linear_34_1889)"/>
<path d="M30 42.5C29.9969 39.866 30.6883 37.2777 32.0045 34.9961C33.3207 32.7144 35.2151 30.8201 37.4968 29.5041C39.7785 28.1881 42.3668 27.4968 45.0009 27.5C47.6349 27.5033 50.2215 28.2009 52.5 29.5225V12.5C52.496 9.18601 51.1778 6.0089 48.8345 3.66555C46.4911 1.32221 43.314 0.00396964 40 0L20 0C16.686 0.00396964 13.5089 1.32221 11.1655 3.66555C8.8222 6.0089 7.50397 9.18601 7.5 12.5V42.5C7.50397 45.814 8.8222 48.9911 11.1655 51.3345C13.5089 53.6778 16.686 54.996 20 55H35V53.65C33.4277 52.249 32.1694 50.5313 31.3077 48.6097C30.446 46.6881 30.0003 44.606 30 42.5ZM20 10H40C40.663 10 41.2989 10.2634 41.7678 10.7322C42.2366 11.2011 42.5 11.837 42.5 12.5C42.5 13.163 42.2366 13.7989 41.7678 14.2678C41.2989 14.7366 40.663 15 40 15H20C19.337 15 18.7011 14.7366 18.2322 14.2678C17.7634 13.7989 17.5 13.163 17.5 12.5C17.5 11.837 17.7634 11.2011 18.2322 10.7322C18.7011 10.2634 19.337 10 20 10ZM20 20H40C40.663 20 41.2989 20.2634 41.7678 20.7322C42.2366 21.2011 42.5 21.837 42.5 22.5C42.5 23.163 42.2366 23.7989 41.7678 24.2678C41.2989 24.7366 40.663 25 40 25H20C19.337 25 18.7011 24.7366 18.2322 24.2678C17.7634 23.7989 17.5 23.163 17.5 22.5C17.5 21.837 17.7634 21.2011 18.2322 20.7322C18.7011 20.2634 19.337 20 20 20ZM27.5 35H20C19.337 35 18.7011 34.7366 18.2322 34.2678C17.7634 33.7989 17.5 33.163 17.5 32.5C17.5 31.837 17.7634 31.2011 18.2322 30.7322C18.7011 30.2634 19.337 30 20 30H27.5C28.163 30 28.7989 30.2634 29.2678 30.7322C29.7366 31.2011 30 31.837 30 32.5C30 33.163 29.7366 33.7989 29.2678 34.2678C28.7989 34.7366 28.163 35 27.5 35Z" fill="url(#paint1_linear_34_1889)"/>
</g>
<defs>
<linearGradient id="paint0_linear_34_1889" x1="34.9981" y1="46.2478" x2="55.0019" y2="46.2478" gradientUnits="userSpaceOnUse">
<stop stop-color="#E94560"/>
<stop offset="1" stop-color="#FD7014"/>
</linearGradient>
<linearGradient id="paint1_linear_34_1889" x1="7.5" y1="27.4997" x2="52.5" y2="27.4997" gradientUnits="userSpaceOnUse">
<stop stop-color="#E94560"/>
<stop offset="1" stop-color="#FD7014"/>
</linearGradient>
<clipPath id="clip0_34_1889">
<rect width="60" height="60" fill="white"/>
</clipPath>
</defs>
</svg>
