<svg width="30" height="30" viewBox="0 0 30 30" fill="none" xmlns="http://www.w3.org/2000/svg">
<g clip-path="url(#clip0_89_4276)">
<path d="M15 11.25C15 10.9185 15.1317 10.6005 15.3661 10.3661C15.6005 10.1317 15.9185 10 16.25 10C16.5815 10 16.8995 10.1317 17.1339 10.3661C17.3683 10.6005 17.5 10.9185 17.5 11.25C17.5 11.5815 17.3683 11.8995 17.1339 12.1339C16.8995 12.3683 16.5815 12.5 16.25 12.5C15.9185 12.5 15.6005 12.3683 15.3661 12.1339C15.1317 11.8995 15 11.5815 15 11.25ZM28.75 6.25V23.75C28.748 25.407 28.0889 26.9956 26.9172 28.1672C25.7456 29.3389 24.157 29.998 22.5 30H10C8.78529 29.9984 7.59737 29.6429 6.58151 28.9769C5.56565 28.3109 4.76588 27.3633 4.28 26.25H2.5C2.16848 26.25 1.85054 26.1183 1.61612 25.8839C1.3817 25.6495 1.25 25.3315 1.25 25C1.25 24.6685 1.3817 24.3505 1.61612 24.1161C1.85054 23.8817 2.16848 23.75 2.5 23.75H3.75V21.25H2.5C2.16848 21.25 1.85054 21.1183 1.61612 20.8839C1.3817 20.6495 1.25 20.3315 1.25 20C1.25 19.6685 1.3817 19.3505 1.61612 19.1161C1.85054 18.8817 2.16848 18.75 2.5 18.75H3.75V16.25H2.5C2.16848 16.25 1.85054 16.1183 1.61612 15.8839C1.3817 15.6495 1.25 15.3315 1.25 15C1.25 14.6685 1.3817 14.3505 1.61612 14.1161C1.85054 13.8817 2.16848 13.75 2.5 13.75H3.75V11.25H2.5C2.16848 11.25 1.85054 11.1183 1.61612 10.8839C1.3817 10.6495 1.25 10.3315 1.25 10C1.25 9.66848 1.3817 9.35054 1.61612 9.11612C1.85054 8.8817 2.16848 8.75 2.5 8.75H3.75V6.25H2.5C2.16848 6.25 1.85054 6.1183 1.61612 5.88388C1.3817 5.64946 1.25 5.33152 1.25 5C1.25 4.66848 1.3817 4.35054 1.61612 4.11612C1.85054 3.8817 2.16848 3.75 2.5 3.75H4.28C4.76588 2.6367 5.56565 1.68912 6.58151 1.02312C7.59737 0.357132 8.78529 0.00159797 10 0L22.5 0C24.157 0.00198482 25.7456 0.661102 26.9172 1.83277C28.0889 3.00445 28.748 4.59301 28.75 6.25ZM12.5 11.25C12.5 12.2446 12.8951 13.1984 13.5983 13.9017C14.3016 14.6049 15.2554 15 16.25 15C17.2446 15 18.1984 14.6049 18.9017 13.9017C19.6049 13.1984 20 12.2446 20 11.25C20 10.2554 19.6049 9.30161 18.9017 8.59835C18.1984 7.89509 17.2446 7.5 16.25 7.5C15.2554 7.5 14.3016 7.89509 13.5983 8.59835C12.8951 9.30161 12.5 10.2554 12.5 11.25ZM22.5 22.5C22.2362 14.24 10.2612 14.2425 10 22.5C10 22.8315 10.1317 23.1495 10.3661 23.3839C10.6005 23.6183 10.9185 23.75 11.25 23.75C11.5815 23.75 11.8995 23.6183 12.1339 23.3839C12.3683 23.1495 12.5 22.8315 12.5 22.5C12.5 21.5054 12.8951 20.5516 13.5983 19.8483C14.3016 19.1451 15.2554 18.75 16.25 18.75C17.2446 18.75 18.1984 19.1451 18.9017 19.8483C19.6049 20.5516 20 21.5054 20 22.5C20 22.8315 20.1317 23.1495 20.3661 23.3839C20.6005 23.6183 20.9185 23.75 21.25 23.75C21.5815 23.75 21.8995 23.6183 22.1339 23.3839C22.3683 23.1495 22.5 22.8315 22.5 22.5Z" fill="#EEEEEE"/>
</g>
<defs>
<clipPath id="clip0_89_4276">
<rect width="30" height="30" fill="white"/>
</clipPath>
</defs>
</svg>
