<svg width="20" height="20" viewBox="0 0 20 20" fill="none" xmlns="http://www.w3.org/2000/svg">
<g clip-path="url(#clip0_99_24)">
<path d="M8.23167 15.1017C8.46383 15.334 8.7395 15.5183 9.04292 15.644C9.34634 15.7697 9.67156 15.8345 10 15.8345C10.3284 15.8345 10.6537 15.7697 10.9571 15.644C11.2605 15.5183 11.5362 15.334 11.7683 15.1017L14.4442 12.4258C14.5876 12.2672 14.6646 12.0594 14.6591 11.8455C14.6536 11.6317 14.5661 11.4282 14.4147 11.2771C14.2632 11.126 14.0595 11.0389 13.8457 11.0338C13.6318 11.0288 13.4242 11.1062 13.2658 11.25L10.8275 13.6892L10.8333 0.833333C10.8333 0.61232 10.7455 0.400358 10.5893 0.244078C10.433 0.0877974 10.221 0 10 0V0C9.77899 0 9.56702 0.0877974 9.41074 0.244078C9.25446 0.400358 9.16667 0.61232 9.16667 0.833333L9.15917 13.6733L6.73417 11.25C6.5778 11.0937 6.36576 11.006 6.14471 11.0061C5.92365 11.0062 5.71167 11.094 5.55542 11.2504C5.39916 11.4068 5.31142 11.6188 5.3115 11.8399C5.31158 12.0609 5.39947 12.2729 5.55583 12.4292L8.23167 15.1017Z" fill="#E1E1E1"/>
<path d="M19.1667 13.3334C18.9457 13.3334 18.7337 13.4212 18.5774 13.5775C18.4211 13.7337 18.3333 13.9457 18.3333 14.1667V17.5C18.3333 17.7211 18.2455 17.933 18.0893 18.0893C17.933 18.2456 17.721 18.3334 17.5 18.3334H2.5C2.27899 18.3334 2.06702 18.2456 1.91074 18.0893C1.75446 17.933 1.66667 17.7211 1.66667 17.5V14.1667C1.66667 13.9457 1.57887 13.7337 1.42259 13.5775C1.26631 13.4212 1.05435 13.3334 0.833333 13.3334C0.61232 13.3334 0.400358 13.4212 0.244078 13.5775C0.0877974 13.7337 0 13.9457 0 14.1667L0 17.5C0 18.1631 0.263392 18.799 0.732233 19.2678C1.20107 19.7366 1.83696 20 2.5 20H17.5C18.163 20 18.7989 19.7366 19.2678 19.2678C19.7366 18.799 20 18.1631 20 17.5V14.1667C20 13.9457 19.9122 13.7337 19.7559 13.5775C19.5996 13.4212 19.3877 13.3334 19.1667 13.3334Z" fill="#E1E1E1"/>
</g>
<defs>
<clipPath id="clip0_99_24">
<rect width="20" height="20" fill="white"/>
</clipPath>
</defs>
</svg>
