<svg width="23" height="22" viewBox="0 0 23 22" fill="none" xmlns="http://www.w3.org/2000/svg">
<path d="M22.9569 5L15.065 12.9561C14.185 13.8409 12.9929 14.3379 11.75 14.3379C10.5071 14.3379 9.31496 13.8409 8.435 12.9561L0.543125 5C0.53 5.14933 0.5 5.28448 0.5 5.43287V16.7744C0.501489 18.0272 0.995827 19.2283 1.87458 20.1142C2.75334 21.0001 3.94475 21.4985 5.1875 21.5H18.3125C19.5552 21.4985 20.7467 21.0001 21.6254 20.1142C22.5042 19.2283 22.9985 18.0272 23 16.7744V5.43287C23 5.28448 22.97 5.14933 22.9569 5Z" fill="#EEEEEE"/>
<path d="M13.8709 11.6533L23 2.82901C22.5578 2.12028 21.934 1.53365 21.1889 1.1257C20.4439 0.717757 19.6026 0.502261 18.7463 0.5H4.75373C3.89741 0.502261 3.05614 0.717757 2.31106 1.1257C1.56598 1.53365 0.942243 2.12028 0.5 2.82901L9.62913 11.6533C10.1924 12.1956 10.955 12.5 11.75 12.5C12.545 12.5 13.3076 12.1956 13.8709 11.6533Z" fill="#EEEEEE"/>
</svg>
