<svg width="59" height="59" viewBox="0 0 59 59" fill="none" xmlns="http://www.w3.org/2000/svg">
<g clip-path="url(#clip0_341_16)">
<path d="M57.9208 52.7195L46.5015 41.2954C55.046 29.8769 52.7162 13.6937 41.2978 5.14927C29.8794 -3.39521 13.6962 -1.06541 5.15171 10.353C-3.39277 21.7714 -1.06297 37.9546 10.3554 46.4991C19.5276 53.3627 32.1255 53.3627 41.2978 46.4991L52.7219 57.9232C54.1576 59.3589 56.4852 59.3589 57.9207 57.9232C59.3564 56.4876 59.3564 54.16 57.9207 52.7244L57.9208 52.7195ZM25.9218 44.2941C15.7737 44.2941 7.54709 36.0675 7.54709 25.9194C7.54709 15.7712 15.7737 7.54464 25.9218 7.54464C36.07 7.54464 44.2966 15.7712 44.2966 25.9194C44.2858 36.0629 36.0655 44.2833 25.9218 44.2941Z" fill="url(#paint0_linear_341_16)"/>
<path d="M19.5057 17.5455H23.1534V29.7159C23.1534 30.8409 22.9006 31.8182 22.3949 32.6477C21.8949 33.4773 21.1989 34.1165 20.3068 34.5653C19.4148 35.0142 18.3778 35.2386 17.196 35.2386C16.1449 35.2386 15.1903 35.054 14.3324 34.6847C13.4801 34.3097 12.804 33.7415 12.304 32.9801C11.804 32.2131 11.5568 31.25 11.5625 30.0909H15.2358C15.2472 30.5511 15.3409 30.946 15.517 31.2756C15.6989 31.5994 15.946 31.8494 16.2585 32.0256C16.5767 32.196 16.9517 32.2812 17.3835 32.2812C17.8381 32.2812 18.2216 32.1847 18.5341 31.9915C18.8523 31.7926 19.0938 31.5028 19.2585 31.1222C19.4233 30.7415 19.5057 30.2727 19.5057 29.7159V17.5455ZM35.6733 22.5653C35.6051 21.8778 35.3125 21.3437 34.7955 20.9631C34.2784 20.5824 33.5767 20.392 32.6903 20.392C32.0881 20.392 31.5795 20.4773 31.1648 20.6477C30.75 20.8125 30.4318 21.0426 30.2102 21.3381C29.9943 21.6335 29.8864 21.9688 29.8864 22.3438C29.875 22.6562 29.9403 22.929 30.0824 23.1619C30.2301 23.3949 30.4318 23.5966 30.6875 23.767C30.9432 23.9318 31.2386 24.0767 31.5739 24.2017C31.9091 24.321 32.267 24.4233 32.6477 24.5085L34.2159 24.8835C34.9773 25.054 35.6761 25.2812 36.3125 25.5653C36.9489 25.8494 37.5 26.1989 37.9659 26.6136C38.4318 27.0284 38.7926 27.517 39.0483 28.0795C39.3097 28.642 39.4432 29.2869 39.4489 30.0142C39.4432 31.0824 39.1705 32.0085 38.6307 32.7926C38.0966 33.571 37.3239 34.1761 36.3125 34.608C35.3068 35.0341 34.0938 35.2472 32.6733 35.2472C31.2642 35.2472 30.0369 35.0312 28.9915 34.5994C27.9517 34.1676 27.1392 33.5284 26.554 32.6818C25.9744 31.8295 25.6705 30.7756 25.642 29.5199H29.2131C29.2528 30.1051 29.4205 30.5937 29.7159 30.9858C30.017 31.3722 30.4176 31.6648 30.9176 31.8636C31.4233 32.0568 31.9943 32.1534 32.6307 32.1534C33.2557 32.1534 33.7983 32.0625 34.2585 31.8807C34.7244 31.6989 35.0852 31.446 35.3409 31.1222C35.5966 30.7983 35.7244 30.4261 35.7244 30.0057C35.7244 29.6136 35.608 29.2841 35.375 29.017C35.1477 28.75 34.8125 28.5227 34.3693 28.3352C33.9318 28.1477 33.3949 27.9773 32.7585 27.8239L30.858 27.3466C29.3864 26.9886 28.2244 26.429 27.3722 25.6676C26.5199 24.9062 26.0966 23.8807 26.1023 22.5909C26.0966 21.5341 26.3778 20.6108 26.946 19.821C27.5199 19.0312 28.3068 18.4148 29.3068 17.9716C30.3068 17.5284 31.4432 17.3068 32.7159 17.3068C34.0114 17.3068 35.142 17.5284 36.108 17.9716C37.0795 18.4148 37.8352 19.0312 38.375 19.821C38.9148 20.6108 39.1932 21.5256 39.2102 22.5653H35.6733Z" fill="#E0E400"/>
</g>
<defs>
<linearGradient id="paint0_linear_341_16" x1="-5.5" y1="46" x2="66.5" y2="43" gradientUnits="userSpaceOnUse">
<stop stop-color="#498DF2"/>
<stop offset="1" stop-color="#5CEBFF"/>
</linearGradient>
<clipPath id="clip0_341_16">
<rect width="59" height="59" fill="white"/>
</clipPath>
</defs>
</svg>
