<svg width="60" height="60" viewBox="0 0 60 60" fill="none" xmlns="http://www.w3.org/2000/svg">
<g clip-path="url(#clip0_34_1878)">
<path d="M60.0001 21.2V50C60.0001 50.663 59.7367 51.2989 59.2679 51.7677C58.799 52.2366 58.1632 52.5 57.5001 52.5C56.8371 52.5 56.2012 52.2366 55.7323 51.7677C55.2635 51.2989 55.0001 50.663 55.0001 50V29.38L36.5001 38.22C34.5495 39.3713 32.3226 39.971 30.0576 39.955C27.6822 39.9586 25.35 39.3203 23.3076 38.1075L4.85761 29.325C3.40732 28.5451 2.19214 27.3913 1.33817 25.9834C0.484194 24.5754 0.0225439 22.9646 0.00111711 21.318C-0.0203097 19.6715 0.399268 18.0492 1.21631 16.6195C2.03336 15.1898 3.2181 14.0048 4.64761 13.1875C4.71511 13.1475 4.78761 13.11 4.85761 13.075L23.5001 4.17996C25.5128 3.02412 27.797 2.42528 30.1179 2.44505C32.4387 2.46483 34.7124 3.10249 36.7051 4.29246L55.1426 13.075C56.5975 13.8799 57.8133 15.0557 58.6664 16.4828C59.5196 17.9099 59.9798 19.5374 60.0001 21.2ZM30.0551 44.95C26.8566 44.9571 23.7129 44.1187 20.9426 42.52L10.0001 37.2975V44.0475C10.0016 46.7163 10.856 49.3147 12.4387 51.4636C14.0213 53.6125 16.2494 55.1993 18.7976 55.9925C22.4384 57.0378 26.2125 57.5457 30.0001 57.5C33.7883 57.5424 37.5623 57.0312 41.2026 55.9825C43.7509 55.1893 45.9789 53.6025 47.5615 51.4536C49.1442 49.3047 49.9986 46.7063 50.0001 44.0375V37.31L38.8526 42.635C36.1767 44.1723 33.1411 44.9728 30.0551 44.955V44.95Z" fill="url(#paint0_linear_34_1878)"/>
</g>
<defs>
<linearGradient id="paint0_linear_34_1878" x1="0.000336119" y1="29.9734" x2="60.0001" y2="29.9734" gradientUnits="userSpaceOnUse">
<stop stop-color="#E94560"/>
<stop offset="1" stop-color="#FD7014"/>
</linearGradient>
<clipPath id="clip0_34_1878">
<rect width="60" height="60" fill="white"/>
</clipPath>
</defs>
</svg>
