<svg width="20" height="20" viewBox="0 0 20 20" fill="none" xmlns="http://www.w3.org/2000/svg">
<g clip-path="url(#clip0_34_1903)">
<path fill-rule="evenodd" clip-rule="evenodd" d="M10 0.246674C4.4775 0.246674 0 4.72334 0 10.2467C0 14.665 2.865 18.4133 6.83833 19.7358C7.33833 19.8283 7.52167 19.5192 7.52167 19.255C7.52167 19.0167 7.5125 18.2292 7.50833 17.3933C4.72667 17.9983 4.13917 16.2133 4.13917 16.2133C3.68417 15.0575 3.02917 14.75 3.02917 14.75C2.12167 14.1292 3.0975 14.1425 3.0975 14.1425C4.10167 14.2133 4.63 15.1733 4.63 15.1733C5.52167 16.7017 6.96917 16.26 7.54 16.0042C7.63 15.3575 7.88917 14.9167 8.175 14.6667C5.95417 14.4142 3.61917 13.5567 3.61917 9.72501C3.61917 8.63334 4.01 7.74084 4.65 7.04084C4.54583 6.78834 4.20333 5.77167 4.74667 4.39417C4.74667 4.39417 5.58667 4.12584 7.4975 5.41917C8.295 5.19751 9.15 5.08667 10 5.08251C10.85 5.08667 11.7058 5.19751 12.505 5.41917C14.4133 4.12501 15.2525 4.39417 15.2525 4.39417C15.7967 5.77167 15.4542 6.78834 15.3508 7.04084C15.9917 7.74084 16.38 8.63334 16.38 9.72501C16.38 13.5658 14.0408 14.4117 11.8142 14.6592C12.1725 14.9692 12.4925 15.5783 12.4925 16.5108C12.4925 17.8492 12.4808 18.9258 12.4808 19.255C12.4808 19.5208 12.6608 19.8333 13.1675 19.735C17.1392 18.4108 20.0008 14.6642 20.0008 10.2475C20 4.72417 15.5225 0.246674 10 0.246674Z" fill="#EEEEEE" fill-opacity="0.7"/>
<path d="M3.7875 14.605C3.76583 14.655 3.6875 14.67 3.61583 14.6358C3.54333 14.6033 3.5025 14.535 3.52583 14.4858C3.5475 14.435 3.62583 14.4208 3.69833 14.455C3.77083 14.4867 3.8125 14.555 3.7875 14.605Z" fill="#EEEEEE" fill-opacity="0.7"/>
<path d="M4.19249 15.0567C4.14499 15.1009 4.05166 15.08 3.98833 15.0109C3.92249 14.9409 3.91083 14.8475 3.95916 14.8034C4.00833 14.7592 4.09833 14.78 4.16416 14.85C4.22999 14.9192 4.24249 15.0117 4.19249 15.0567Z" fill="#EEEEEE" fill-opacity="0.7"/>
<path d="M4.58667 15.6325C4.525 15.675 4.425 15.635 4.36334 15.5467C4.30167 15.4575 4.30167 15.3509 4.365 15.3084C4.42667 15.2659 4.52584 15.3042 4.58834 15.3925C4.64917 15.4825 4.64917 15.5892 4.58667 15.6325Z" fill="#EEEEEE" fill-opacity="0.7"/>
<path d="M5.12666 16.1892C5.07166 16.25 4.95499 16.2333 4.86999 16.1508C4.78249 16.07 4.75832 15.9558 4.81332 15.895C4.86916 15.8342 4.98666 15.8517 5.07249 15.9333C5.15916 16.0142 5.18499 16.1292 5.12666 16.1892Z" fill="#EEEEEE" fill-opacity="0.7"/>
<path d="M5.8725 16.5117C5.84833 16.59 5.73583 16.6258 5.6225 16.5925C5.50917 16.5583 5.435 16.4667 5.45833 16.3875C5.48167 16.3083 5.595 16.2717 5.70917 16.3075C5.82167 16.3408 5.89583 16.4325 5.8725 16.5117Z" fill="#EEEEEE" fill-opacity="0.7"/>
<path d="M6.69083 16.5717C6.69333 16.6542 6.5975 16.7225 6.47833 16.7242C6.35917 16.7267 6.26167 16.66 6.26083 16.5792C6.26083 16.4958 6.355 16.4283 6.47417 16.4258C6.59333 16.4233 6.69083 16.49 6.69083 16.5717Z" fill="#EEEEEE" fill-opacity="0.7"/>
<path d="M7.4525 16.4425C7.46666 16.5225 7.38416 16.6058 7.26583 16.6275C7.15 16.6492 7.0425 16.5992 7.0275 16.5192C7.01333 16.4367 7.0975 16.3542 7.21333 16.3325C7.33083 16.3117 7.4375 16.36 7.4525 16.4425Z" fill="#EEEEEE" fill-opacity="0.7"/>
</g>
<defs>
<clipPath id="clip0_34_1903">
<rect width="20" height="20" fill="white"/>
</clipPath>
</defs>
</svg>
