<svg width="30" height="30" viewBox="0 0 30 30" fill="none" xmlns="http://www.w3.org/2000/svg">
<g clip-path="url(#clip0_34_2209)">
<path fill-rule="evenodd" clip-rule="evenodd" d="M15 0.369995C6.71625 0.369995 0 7.085 0 15.37C0 21.9975 4.2975 27.62 10.2575 29.6037C11.0075 29.7425 11.2825 29.2787 11.2825 28.8825C11.2825 28.525 11.2688 27.3437 11.2625 26.09C7.09 26.9975 6.20875 24.32 6.20875 24.32C5.52625 22.5862 4.54375 22.125 4.54375 22.125C3.1825 21.1937 4.64625 21.2137 4.64625 21.2137C6.1525 21.32 6.945 22.76 6.945 22.76C8.2825 25.0525 10.4538 24.39 11.31 24.0062C11.445 23.0362 11.8338 22.375 12.2625 22C8.93125 21.6212 5.42875 20.335 5.42875 14.5875C5.42875 12.95 6.015 11.6112 6.975 10.5612C6.81875 10.1825 6.305 8.6575 7.12 6.59125C7.12 6.59125 8.38 6.18875 11.2463 8.12875C12.4425 7.79625 13.725 7.63 15 7.62375C16.275 7.63 17.5588 7.79625 18.7575 8.12875C21.62 6.1875 22.8788 6.59125 22.8788 6.59125C23.695 8.6575 23.1813 10.1825 23.0263 10.5612C23.9875 11.6112 24.57 12.95 24.57 14.5875C24.57 20.3487 21.0613 21.6175 17.7213 21.9887C18.2588 22.4537 18.7388 23.3675 18.7388 24.7662C18.7388 26.7737 18.7213 28.3888 18.7213 28.8825C18.7213 29.2812 18.9913 29.75 19.7513 29.6025C25.7088 27.6162 30.0013 21.9962 30.0013 15.3712C30 7.08625 23.2838 0.369995 15 0.369995Z" fill="url(#paint0_linear_34_2209)"/>
<path d="M5.68126 21.9075C5.64876 21.9825 5.53126 22.005 5.42376 21.9537C5.31501 21.905 5.25376 21.8025 5.28876 21.7287C5.32126 21.6525 5.43876 21.6312 5.54751 21.6825C5.65626 21.73 5.71876 21.8325 5.68126 21.9075Z" fill="url(#paint1_linear_34_2209)"/>
<path d="M6.28874 22.585C6.21749 22.6512 6.07749 22.62 5.98249 22.5162C5.88374 22.4112 5.86624 22.2712 5.93874 22.205C6.01249 22.1387 6.14749 22.17 6.24624 22.275C6.34499 22.3787 6.36374 22.5175 6.28874 22.585Z" fill="url(#paint2_linear_34_2209)"/>
<path d="M6.87999 23.4488C6.78749 23.5125 6.63749 23.4525 6.54499 23.32C6.45249 23.1863 6.45249 23.0263 6.54749 22.9625C6.63999 22.8988 6.78874 22.9563 6.88249 23.0888C6.97374 23.2238 6.97374 23.3838 6.87999 23.4488Z" fill="url(#paint3_linear_34_2209)"/>
<path d="M7.69 24.2837C7.6075 24.375 7.4325 24.35 7.305 24.2262C7.17375 24.105 7.1375 23.9337 7.22 23.8425C7.30375 23.7512 7.48 23.7775 7.60875 23.9C7.73875 24.0212 7.7775 24.1937 7.69 24.2837Z" fill="url(#paint4_linear_34_2209)"/>
<path d="M8.80875 24.7675C8.7725 24.885 8.60375 24.9388 8.43375 24.8888C8.26375 24.8375 8.1525 24.7 8.1875 24.5813C8.2225 24.4625 8.3925 24.4075 8.56375 24.4613C8.7325 24.5113 8.84375 24.6488 8.80875 24.7675Z" fill="url(#paint5_linear_34_2209)"/>
<path d="M10.0362 24.8575C10.04 24.9813 9.89624 25.0838 9.71749 25.0863C9.53874 25.09 9.39249 24.99 9.39124 24.8688C9.39124 24.7438 9.53249 24.6425 9.71124 24.6388C9.88999 24.635 10.0362 24.735 10.0362 24.8575Z" fill="url(#paint6_linear_34_2209)"/>
<path d="M11.1787 24.6638C11.2 24.7838 11.0762 24.9088 10.8987 24.9413C10.725 24.9738 10.5637 24.8988 10.5412 24.7788C10.52 24.655 10.6462 24.5313 10.82 24.4988C10.9962 24.4675 11.1562 24.54 11.1787 24.6638Z" fill="url(#paint7_linear_34_2209)"/>
</g>
<defs>
<linearGradient id="paint0_linear_34_2209" x1="2.13048e-07" y1="15" x2="30.0013" y2="15" gradientUnits="userSpaceOnUse">
<stop stop-color="#E94560"/>
<stop offset="1" stop-color="#FD7014"/>
</linearGradient>
<linearGradient id="paint1_linear_34_2209" x1="5.2789" y1="21.8179" x2="5.69219" y2="21.8179" gradientUnits="userSpaceOnUse">
<stop stop-color="#E94560"/>
<stop offset="1" stop-color="#FD7014"/>
</linearGradient>
<linearGradient id="paint2_linear_34_2209" x1="5.89435" y1="22.395" x2="6.33466" y2="22.395" gradientUnits="userSpaceOnUse">
<stop stop-color="#E94560"/>
<stop offset="1" stop-color="#FD7014"/>
</linearGradient>
<linearGradient id="paint3_linear_34_2209" x1="6.47592" y1="23.2054" x2="6.95062" y2="23.2054" gradientUnits="userSpaceOnUse">
<stop stop-color="#E94560"/>
<stop offset="1" stop-color="#FD7014"/>
</linearGradient>
<linearGradient id="paint4_linear_34_2209" x1="7.17596" y1="24.0633" x2="7.73706" y2="24.0633" gradientUnits="userSpaceOnUse">
<stop stop-color="#E94560"/>
<stop offset="1" stop-color="#FD7014"/>
</linearGradient>
<linearGradient id="paint5_linear_34_2209" x1="8.18106" y1="24.674" x2="8.81519" y2="24.674" gradientUnits="userSpaceOnUse">
<stop stop-color="#E94560"/>
<stop offset="1" stop-color="#FD7014"/>
</linearGradient>
<linearGradient id="paint6_linear_34_2209" x1="9.39124" y1="24.8625" x2="10.0363" y2="24.8625" gradientUnits="userSpaceOnUse">
<stop stop-color="#E94560"/>
<stop offset="1" stop-color="#FD7014"/>
</linearGradient>
<linearGradient id="paint7_linear_34_2209" x1="10.5389" y1="24.7202" x2="11.1811" y2="24.7202" gradientUnits="userSpaceOnUse">
<stop stop-color="#E94560"/>
<stop offset="1" stop-color="#FD7014"/>
</linearGradient>
<clipPath id="clip0_34_2209">
<rect width="30" height="30" fill="white"/>
</clipPath>
</defs>
</svg>
