<svg width="68" height="69" viewBox="0 0 68 69" fill="none" xmlns="http://www.w3.org/2000/svg">
<g clip-path="url(#clip0_186_20)">
<path d="M22.4606 53.5559C22.4606 53.8254 22.1493 54.041 21.7566 54.041C21.3099 54.0814 20.9985 53.8658 20.9985 53.5559C20.9985 53.2863 21.3099 53.0707 21.7025 53.0707C22.1086 53.0303 22.4606 53.2459 22.4606 53.5559ZM18.2501 52.9494C18.1554 53.2189 18.4261 53.5289 18.8323 53.6098C19.1843 53.7445 19.5905 53.6098 19.6717 53.3402C19.7529 53.0707 19.4957 52.7607 19.0895 52.6395C18.7375 52.5451 18.3449 52.6799 18.2501 52.9494ZM24.2342 52.7203C23.8416 52.8147 23.5708 53.0707 23.6114 53.3807C23.652 53.6502 24.0041 53.8254 24.4102 53.7311C24.8028 53.6367 25.0736 53.3807 25.033 53.1111C24.9924 52.8551 24.6268 52.6799 24.2342 52.7203ZM33.1427 1.07812C14.3645 1.07812 0 15.2689 0 33.9609C0 48.9064 9.44999 61.6957 22.948 66.1969C24.681 66.5068 25.2902 65.4422 25.2902 64.5662C25.2902 63.7307 25.2496 59.1217 25.2496 56.2916C25.2496 56.2916 15.7725 58.3131 13.7824 52.2756C13.7824 52.2756 12.239 48.3539 10.0186 47.3432C10.0186 47.3432 6.91826 45.2273 10.2352 45.2678C10.2352 45.2678 13.6064 45.5373 15.4612 48.7447C18.4261 53.9467 23.3948 52.4508 25.3308 51.5613C25.6422 49.4051 26.5222 47.9092 27.497 47.0197C19.9289 46.1842 12.2931 45.0926 12.2931 32.1281C12.2931 28.4221 13.322 26.5623 15.4882 24.1904C15.1362 23.3145 13.9854 19.7027 15.8402 15.0398C18.6698 14.1639 25.1819 18.6785 25.1819 18.6785C27.8897 17.9238 30.8005 17.533 33.6842 17.533C36.5679 17.533 39.4788 17.9238 42.1865 18.6785C42.1865 18.6785 48.6986 14.1504 51.5282 15.0398C53.383 19.7162 52.2322 23.3145 51.8802 24.1904C54.0464 26.5758 55.3731 28.4355 55.3731 32.1281C55.3731 45.133 47.3989 46.1707 39.8308 47.0197C41.0763 48.0844 42.1323 50.1059 42.1323 53.2729C42.1323 57.8145 42.0917 63.4342 42.0917 64.5393C42.0917 65.4152 42.7145 66.4799 44.4339 66.1699C57.9726 61.6957 67.1518 48.9064 67.1518 33.9609C67.1518 15.2689 51.9208 1.07812 33.1427 1.07812ZM13.1596 47.5588C12.9836 47.6936 13.0242 48.0035 13.2544 48.2596C13.471 48.4752 13.7824 48.5695 13.9584 48.3943C14.1344 48.2596 14.0938 47.9496 13.8636 47.6936C13.647 47.4779 13.3356 47.3836 13.1596 47.5588ZM11.6974 46.4672C11.6026 46.6424 11.738 46.858 12.0088 46.9928C12.2254 47.1275 12.4962 47.0871 12.591 46.8984C12.6857 46.7232 12.5503 46.5076 12.2796 46.3729C12.0088 46.292 11.7922 46.3324 11.6974 46.4672ZM16.0839 51.2648C15.8673 51.44 15.9485 51.8443 16.2599 52.1004C16.5713 52.4104 16.9639 52.4508 17.14 52.2352C17.316 52.06 17.2347 51.6557 16.9639 51.3996C16.6661 51.0896 16.2599 51.0492 16.0839 51.2648ZM14.5405 49.2838C14.3239 49.4186 14.3239 49.7689 14.5405 50.0789C14.7571 50.3889 15.1227 50.5236 15.2987 50.3889C15.5153 50.2137 15.5153 49.8633 15.2987 49.5533C15.1092 49.2434 14.7571 49.1086 14.5405 49.2838Z" fill="#EEEEEE"/>
</g>
<defs>
<clipPath id="clip0_186_20">
<rect width="67.1518" height="69" fill="white"/>
</clipPath>
</defs>
</svg>
