<svg width="69" height="69" viewBox="0 0 69 69" fill="none" xmlns="http://www.w3.org/2000/svg">
<g clip-path="url(#clip0_188_31)">
<path d="M47.4375 34.5C47.4375 37.4918 47.2758 40.3758 46.9928 43.125H22.0072C21.7107 40.3758 21.5625 37.4918 21.5625 34.5C21.5625 31.5082 21.7242 28.6242 22.0072 25.875H46.9928C47.2893 28.6242 47.4375 31.5082 47.4375 34.5ZM51.3187 25.875H67.9084C68.6227 28.6377 69 31.5217 69 34.5C69 37.4783 68.6227 40.3623 67.9084 43.125H51.3187C51.6018 40.3488 51.75 37.4648 51.75 34.5C51.75 31.5352 51.6018 28.6512 51.3187 25.875ZM66.4934 21.5625H50.7662C49.4186 12.951 46.7502 5.74102 43.3137 1.13203C53.8658 3.92168 62.4504 11.5764 66.4799 21.5625H66.4934ZM46.3998 21.5625H22.6002C23.4223 16.657 24.6891 12.3176 26.2389 8.8002C27.6539 5.61973 29.2307 3.31523 30.7535 1.85977C32.2629 0.43125 33.5162 0 34.5 0C35.4838 0 36.7371 0.43125 38.2465 1.85977C39.7693 3.31523 41.3461 5.61973 42.7611 8.8002C44.3244 12.3041 45.5912 16.6436 46.3998 21.5625ZM18.2338 21.5625H2.50664C6.54961 11.5764 15.1207 3.92168 25.6863 1.13203C22.2498 5.74102 19.5814 12.951 18.2338 21.5625ZM1.0916 25.875H17.6812C17.3982 28.6512 17.25 31.5352 17.25 34.5C17.25 37.4648 17.3982 40.3488 17.6812 43.125H1.0916C0.377344 40.3623 0 37.4783 0 34.5C0 31.5217 0.377344 28.6377 1.0916 25.875ZM26.2389 60.1863C24.6756 56.6824 23.4223 52.343 22.6002 47.4375H46.3998C45.5777 52.343 44.3109 56.6824 42.7611 60.1863C41.3461 63.3668 39.7693 65.6713 38.2465 67.1268C36.7371 68.5687 35.4838 69 34.5 69C33.5162 69 32.2629 68.5687 30.7535 67.1402C29.2307 65.6848 27.6539 63.3803 26.2389 60.1998V60.1863ZM18.2338 47.4375C19.5814 56.049 22.2498 63.259 25.6863 67.868C15.1207 65.0783 6.54961 57.4236 2.50664 47.4375H18.2338ZM66.4934 47.4375C62.4504 57.4236 53.8793 65.0783 43.3271 67.868C46.7637 63.259 49.4186 56.049 50.7797 47.4375H66.4934Z" fill="#B4A94F"/>
</g>
<defs>
<clipPath id="clip0_188_31">
<rect width="69" height="69" fill="white"/>
</clipPath>
</defs>
</svg>
