<svg width="69" height="69" viewBox="0 0 69 69" fill="none" xmlns="http://www.w3.org/2000/svg">
<g clip-path="url(#clip0_186_8)">
<path d="M16.0022 41.0435C16.0022 39.1345 23.2501 38.0621 26.6225 37.8005L26.9445 37.9874C25.6479 38.2231 20.447 39.1402 20.447 40.3362C20.447 41.6386 28.4251 42.4925 33.0539 42.4925C40.917 42.4925 46.2645 41.3022 47.702 40.9112L49.7145 42.0814C48.3374 42.757 42.4235 44.5222 33.0539 44.5222C22.6435 44.5222 16.0022 42.4867 16.0022 41.0435ZM31.8694 67.8615C27.7495 67.896 22.7182 67.5567 18.4862 66.8466L18.0924 67.0709C22.31 68.3071 28.1807 69.0546 34.6294 68.9971C47.2966 68.8879 57.5661 65.7455 57.7674 61.9649L57.6208 61.8786C56.7726 62.9165 51.2957 67.6919 31.8694 67.8615ZM32.9475 65.4264C43.3148 65.3344 54.9154 63.3075 54.8838 59.8977C54.878 59.2796 54.4755 58.8541 54.1248 58.6011L53.9551 58.6989C52.9977 61.341 44.8989 63.2931 32.9303 63.3966C25.208 63.4656 14.513 61.6141 14.4929 59.478C14.4756 57.3332 19.5615 56.1574 19.5615 56.1574L19.2021 55.9475C15.7952 56.4161 9.51337 58.0491 9.5335 60.4066C9.56225 63.8135 23.9947 65.504 32.9475 65.4264ZM56.304 41.9549C56.0941 45.954 52.3997 48.4466 48.7054 50.5483L49.0389 50.7409C52.9805 49.6311 60.0128 46.4025 59.432 41.4402C59.1416 38.9677 56.879 37.1967 53.9321 37.1967C53.0121 37.1967 52.1956 37.3577 51.5344 37.559L51.5315 37.5647L51.3906 37.9155C54.0299 37.4066 56.4391 39.3329 56.304 41.9549ZM25.8491 53.8401C24.6474 54.0787 22.0254 54.6825 22.0254 55.9561C22.0254 57.7214 27.6345 59.0755 33.051 59.0755C40.503 59.0755 43.5562 57.1579 43.6942 57.0572L40.595 55.2632C39.2782 55.5766 37.0559 56.0683 33.0596 56.0683C28.5976 56.0683 25.691 55.3064 25.691 54.4697C25.691 54.2915 25.8031 54.0816 26.0072 53.9264L25.8491 53.8401ZM44.1571 47.886C42.4436 48.3719 38.5825 49.1625 33.0625 49.1625C27.646 49.1625 23.2185 48.2367 23.2041 47.1442C23.1926 46.4169 24.0724 46.1006 24.0724 46.1006L23.9171 46.0115C21.321 46.4686 18.9117 47.1787 18.9261 48.2396C18.9491 50.1659 26.3149 51.6091 33.051 51.6091C38.778 51.6091 44.2779 50.6489 46.759 49.3896L44.1571 47.886Z" fill="#3B93C5"/>
<path d="M42.6794 4.93638C42.6794 15.5538 28.1319 19.6161 28.1319 27.163C28.1319 32.4616 31.6451 35.7851 33.5915 37.8868L33.4334 37.9787C30.9781 36.4435 24.5209 32.5853 24.5209 26.2114C24.5209 17.2644 41.2332 12.9893 41.2332 2.82612C41.2332 1.5755 41.0492 0.61525 40.917 0.100625L41.0837 0C41.6127 0.664125 42.6794 2.32875 42.6794 4.93638ZM47.4634 14.3376L47.288 14.237C44.1226 15.2979 34.3764 19.1446 34.3764 26.3178C34.3764 30.3744 38.3381 32.6226 38.3381 36.4263C38.3381 37.7832 37.5705 39.0569 36.9495 39.8159L37.2629 39.997C38.9131 38.9246 41.8313 36.6045 41.8313 33.6087C41.8313 31.0701 38.3209 28.0226 38.3209 24.7595C38.318 19.6219 45.0944 15.5911 47.4634 14.3376Z" fill="#FA2525"/>
</g>
<defs>
<clipPath id="clip0_186_8">
<rect width="69" height="69" fill="white"/>
</clipPath>
</defs>
</svg>
