<svg width="69" height="69" viewBox="0 0 69 69" fill="none" xmlns="http://www.w3.org/2000/svg">
<rect width="69" height="69" rx="10" fill="#F0DB4F"/>
<path d="M46.3507 53.9062C46.9383 55.0982 47.8503 56.1001 48.9819 56.7969C50.1135 57.4937 51.4188 57.857 52.7476 57.845C55.4329 57.845 57.1492 56.5024 57.1492 54.6451C57.1492 52.4227 55.3869 51.635 52.4285 50.3326L50.807 49.6369C46.1294 47.6445 43.0215 45.1461 43.0215 39.8619C43.03 38.6598 43.2886 37.4726 43.7807 36.3759C44.2728 35.2791 44.9878 34.2968 45.8801 33.4913C46.7724 32.6858 47.8225 32.0747 48.9638 31.697C50.105 31.3193 51.3123 31.1831 52.509 31.2972C54.3898 31.1617 56.2688 31.5843 57.9105 32.512C59.5522 33.4398 60.8835 34.8314 61.7377 36.5125L56.6892 39.7526C56.3579 38.921 55.7814 38.21 55.0362 37.7139C54.2911 37.2178 53.4126 36.9602 52.5176 36.9754C52.1277 36.9362 51.734 36.9787 51.3614 37.1C50.9888 37.2214 50.6456 37.419 50.3535 37.6802C50.0614 37.9414 49.827 38.2606 49.665 38.6174C49.503 38.9742 49.417 39.3608 49.4126 39.7526C49.4126 41.699 50.6172 42.4867 53.4002 43.6914L55.0217 44.3842C60.5302 46.7475 63.6467 49.1567 63.6467 54.5704C63.6467 60.4095 59.0611 63.6065 52.9029 63.6065C50.5036 63.7595 48.1113 63.2149 46.0146 62.0385C43.9179 60.8621 42.2064 59.1042 41.0866 56.9767L46.3507 53.9062ZM23.4456 54.4812C24.4634 56.2867 25.392 57.8162 27.6172 57.8162C29.7476 57.8162 31.0931 56.9825 31.0931 53.7395V31.6825H37.5762V53.82C37.7291 55.1326 37.5846 56.4628 37.1534 57.712C36.7223 58.9611 36.0155 60.0973 35.0855 61.0361C34.1555 61.975 33.0261 62.6924 31.7811 63.1354C30.536 63.5784 29.2072 63.7355 27.8932 63.595C25.8636 63.7057 23.848 63.1991 22.1118 62.1419C20.3757 61.0847 19.0004 59.5265 18.1671 57.6725L23.4456 54.4812Z" fill="#323330"/>
</svg>
