<svg width="55" height="59" viewBox="0 0 55 59" fill="none" xmlns="http://www.w3.org/2000/svg">
<rect width="54.3906" height="59" rx="10" fill="#73D5FF"/>
<g clip-path="url(#clip0_343_34)">
<path d="M27.5 10C25.2255 10 23.0021 10.6745 21.1109 11.9381C19.2198 13.2017 17.7458 14.9978 16.8754 17.0991C16.005 19.2005 15.7772 21.5128 16.221 23.7435C16.6647 25.9743 17.76 28.0234 19.3683 29.6317C20.9766 31.24 23.0257 32.3353 25.2565 32.779C27.4872 33.2228 29.7995 32.995 31.9009 32.1246C34.0022 31.2542 35.7983 29.7802 37.0619 27.8891C38.3255 25.9979 39 23.7745 39 21.5C38.9967 18.451 37.784 15.5279 35.6281 13.3719C33.4721 11.216 30.549 10.0033 27.5 10V10ZM35.7867 16.7083H32.6999C32.0089 15.1069 31.0991 13.6092 29.9965 12.2578C32.4368 12.9219 34.5172 14.5209 35.7867 16.7083V16.7083ZM31.8125 21.5C31.8046 22.4757 31.6509 23.4448 31.3563 24.375H23.6437C23.3491 23.4448 23.1954 22.4757 23.1875 21.5C23.1954 20.5243 23.3491 19.5552 23.6437 18.625H31.3563C31.6509 19.5552 31.8046 20.5243 31.8125 21.5V21.5ZM24.4123 26.2917H30.5878C29.7744 27.8976 28.7345 29.3783 27.5 30.6885C26.2651 29.3787 25.2252 27.8979 24.4123 26.2917V26.2917ZM24.4123 16.7083C25.2257 15.1024 26.2655 13.6217 27.5 12.3115C28.7349 13.6213 29.7749 15.1021 30.5878 16.7083H24.4123ZM25.0083 12.2578C23.904 13.6089 22.9926 15.1067 22.3001 16.7083H19.2133C20.4839 14.5199 22.5662 12.9208 25.0083 12.2578V12.2578ZM18.3585 18.625H21.6542C21.4057 19.5633 21.2769 20.5293 21.2708 21.5C21.2769 22.4707 21.4057 23.4367 21.6542 24.375H18.3585C17.7694 22.5036 17.7694 20.4964 18.3585 18.625V18.625ZM19.2133 26.2917H22.3001C22.9926 27.8933 23.904 29.3911 25.0083 30.7422C22.5662 30.0792 20.4839 28.4801 19.2133 26.2917V26.2917ZM29.9965 30.7422C31.0991 29.3908 32.0089 27.8931 32.6999 26.2917H35.7867C34.5172 28.4791 32.4368 30.0781 29.9965 30.7422V30.7422ZM36.6415 24.375H33.3458C33.5943 23.4367 33.7231 22.4707 33.7292 21.5C33.7231 20.5293 33.5943 19.5633 33.3458 18.625H36.6396C37.2287 20.4964 37.2287 22.5036 36.6396 24.375H36.6415Z" fill="#222831"/>
</g>
<path d="M18.2045 35.1136L3.11364 42.4318V38.9545L14.25 33.8864L14.1364 34.0795V33.5909L14.25 33.7955L3.11364 28.7159V25.25L18.2045 32.5682V35.1136Z" fill="#222831"/>
<path d="M35.75 39V41.8864H20.9659V39H35.75Z" fill="#222831"/>
<defs>
<clipPath id="clip0_343_34">
<rect width="23" height="23" fill="white" transform="translate(16 10)"/>
</clipPath>
</defs>
</svg>
