<svg width="25" height="25" viewBox="0 0 25 25" fill="none" xmlns="http://www.w3.org/2000/svg">
<g clip-path="url(#clip0_72_10882)">
<path d="M8.225 16.7751C7.61459 16.1657 7.61459 15.1751 8.225 14.5657C8.83542 13.9553 9.82396 13.9553 10.4344 14.5657C11.8156 15.9469 14.226 15.948 15.6073 14.5657L20.8042 9.36882C22.2302 7.94278 22.2302 5.62194 20.8042 4.1959C19.3781 2.76986 17.0573 2.76986 15.6313 4.1959C15.0208 4.80632 14.0323 4.80632 13.4219 4.1959C12.8115 3.58652 12.8115 2.5959 13.4219 1.98652C16.0656 -0.658268 20.3698 -0.658268 23.0135 1.98652C25.6583 4.63132 25.6583 8.9334 23.0135 11.5782L17.8167 16.7751C16.4938 18.098 14.7573 18.7584 13.0208 18.7584C11.2844 18.7584 9.54688 18.0969 8.225 16.7751ZM6.78334 24.9969C8.5198 24.9969 10.2563 24.3355 11.5792 23.0136C12.1896 22.4042 12.1896 21.4136 11.5792 20.8042C10.9688 20.1938 9.98021 20.1938 9.3698 20.8042C7.94271 22.2313 5.62188 22.2303 4.19688 20.8042C2.77084 19.3782 2.77084 17.0574 4.19688 15.6313L9.36459 10.4636C10.7917 9.03652 13.1125 9.03652 14.5375 10.4636C15.1479 11.074 16.1365 11.074 16.7469 10.4636C17.3573 9.85423 17.3573 8.86361 16.7469 8.25423C14.1021 5.60944 9.8 5.60944 7.15521 8.25423L1.98646 13.4219C-0.658329 16.0667 -0.658329 20.3688 1.98646 23.0136C3.30938 24.3365 5.04584 24.9969 6.7823 24.9969H6.78334Z" fill="#EEEEEE"/>
</g>
<defs>
<clipPath id="clip0_72_10882">
<rect width="25" height="25" fill="white"/>
</clipPath>
</defs>
</svg>
