<svg width="26" height="26" viewBox="0 0 26 26" fill="none" xmlns="http://www.w3.org/2000/svg">
<path d="M21.6138 21.8413H17.855V15.955C17.855 14.5513 17.83 12.745 15.9 12.745C13.9425 12.745 13.6425 14.2738 13.6425 15.8538V21.8413H9.885V9.73628H13.4938V11.39H13.5438C14.28 10.1325 15.6475 9.38128 17.1037 9.43503C20.9137 9.43503 21.615 11.9413 21.615 15.2L21.6138 21.8413ZM5.64375 8.08128C4.43875 8.08128 3.4625 7.10503 3.4625 5.90003C3.4625 4.69503 4.43875 3.71878 5.64375 3.71878C6.84875 3.71878 7.825 4.69503 7.825 5.90003C7.825 7.10503 6.84875 8.08128 5.64375 8.08128ZM7.5225 21.8413H3.76V9.73628H7.5225V21.8413ZM23.4875 0.228777H1.87125C0.85 0.217527 0.0125 1.03628 0 2.05753V23.7625C0.0125 24.785 0.85 25.6038 1.87125 25.5925H23.4875C24.5113 25.605 25.3525 24.7863 25.3662 23.7625V2.05628C25.3512 1.03253 24.51 0.213777 23.4875 0.227527" fill="url(#paint0_linear_34_2222)"/>
<defs>
<linearGradient id="paint0_linear_34_2222" x1="1.80134e-07" y1="12.9099" x2="25.3662" y2="12.9099" gradientUnits="userSpaceOnUse">
<stop stop-color="#E94560"/>
<stop offset="1" stop-color="#FD7014"/>
</linearGradient>
</defs>
</svg>
