<svg width="17" height="18" viewBox="0 0 17 18" fill="none" xmlns="http://www.w3.org/2000/svg">
<path d="M14.4092 14.8941H11.9033V10.97C11.9033 10.0341 11.8867 8.82998 10.6 8.82998C9.295 8.82998 9.095 9.84914 9.095 10.9025V14.8941H6.59V6.82414H8.99583V7.92664H9.02917C9.52 7.08831 10.4317 6.58748 11.4025 6.62331C13.9425 6.62331 14.41 8.29414 14.41 10.4666L14.4092 14.8941ZM3.7625 5.72081C2.95917 5.72081 2.30833 5.06998 2.30833 4.26664C2.30833 3.46331 2.95917 2.81248 3.7625 2.81248C4.56583 2.81248 5.21667 3.46331 5.21667 4.26664C5.21667 5.06998 4.56583 5.72081 3.7625 5.72081ZM5.015 14.8941H2.50667V6.82414H5.015V14.8941ZM15.6583 0.48581H1.2475C0.566667 0.47831 0.00833333 1.02414 0 1.70498V16.175C0.00833333 16.8566 0.566667 17.4025 1.2475 17.395H15.6583C16.3408 17.4033 16.9017 16.8575 16.9108 16.175V1.70414C16.9008 1.02164 16.34 0.47581 15.6583 0.484977" fill="#E1E1E1" fill-opacity="0.7"/>
</svg>
