<svg width="20" height="20" viewBox="0 0 20 20" fill="none" xmlns="http://www.w3.org/2000/svg">
<g clip-path="url(#clip0_78_10946)">
<path d="M14.14 7.11003L16.0833 6.13753L17.0558 4.19337L18.0283 6.13753L19.9725 7.11003L18.0292 8.08337L17.0567 10.0275L16.0833 8.08337L14.14 7.11003ZM19.1667 14.1667C18.9456 14.1667 18.7337 14.2545 18.5774 14.4108C18.4211 14.5671 18.3333 14.779 18.3333 15C18.3333 15.221 18.4211 15.433 18.5774 15.5893C18.7337 15.7456 18.9456 15.8334 19.1667 15.8334C19.3877 15.8334 19.5996 15.7456 19.7559 15.5893C19.9122 15.433 20 15.221 20 15C20 14.779 19.9122 14.5671 19.7559 14.4108C19.5996 14.2545 19.3877 14.1667 19.1667 14.1667ZM14.1667 10.8334C13.9456 10.8334 13.7337 10.9212 13.5774 11.0774C13.4211 11.2337 13.3333 11.4457 13.3333 11.6667C13.3333 11.8877 13.4211 12.0997 13.5774 12.256C13.7337 12.4122 13.9456 12.5 14.1667 12.5C14.3877 12.5 14.5996 12.4122 14.7559 12.256C14.9122 12.0997 15 11.8877 15 11.6667C15 11.4457 14.9122 11.2337 14.7559 11.0774C14.5996 10.9212 14.3877 10.8334 14.1667 10.8334ZM15.6333 18.245L16.855 17.4067L15.5042 16.7975C9.65999 14.2675 9.25416 5.78253 14.8375 2.7092L16.1225 1.97587L14.8292 1.25753C8.35999 -2.48747 -0.125839 2.5367 -5.37315e-06 10C-0.00406098 11.8203 0.489845 13.607 1.42825 15.1668C2.36665 16.7265 3.71381 17.9999 5.32389 18.8491C6.93398 19.6982 8.74565 20.0908 10.5628 19.9843C12.38 19.8779 14.1334 19.2764 15.6333 18.245Z" fill="#EEEEEE"/>
</g>
<defs>
<clipPath id="clip0_78_10946">
<rect width="20" height="20" fill="white"/>
</clipPath>
</defs>
</svg>
