<svg width="20" height="20" viewBox="0 0 20 20" fill="none" xmlns="http://www.w3.org/2000/svg">
<g clip-path="url(#clip0_89_4280)">
<path d="M4.16667 9.58337C4.16667 9.25185 4.29836 8.93391 4.53278 8.69949C4.7672 8.46507 5.08515 8.33337 5.41667 8.33337H14.5833C14.9149 8.33337 15.2328 8.46507 15.4672 8.69949C15.7016 8.93391 15.8333 9.25185 15.8333 9.58337C15.8333 9.9149 15.7016 10.2328 15.4672 10.4673C15.2328 10.7017 14.9149 10.8334 14.5833 10.8334H5.41667C5.08515 10.8334 4.7672 10.7017 4.53278 10.4673C4.29836 10.2328 4.16667 9.9149 4.16667 9.58337ZM5.41667 15H11.25C11.5815 15 11.8995 14.8683 12.1339 14.6339C12.3683 14.3995 12.5 14.0816 12.5 13.75C12.5 13.4185 12.3683 13.1006 12.1339 12.8662C11.8995 12.6317 11.5815 12.5 11.25 12.5H5.41667C5.08515 12.5 4.7672 12.6317 4.53278 12.8662C4.29836 13.1006 4.16667 13.4185 4.16667 13.75C4.16667 14.0816 4.29836 14.3995 4.53278 14.6339C4.7672 14.8683 5.08515 15 5.41667 15ZM20 5.41671V14.5834C19.9987 15.7985 19.5154 16.9636 18.6561 17.8228C17.7969 18.6821 16.6318 19.1654 15.4167 19.1667H4.58333C3.36816 19.1654 2.20314 18.6821 1.34389 17.8228C0.484634 16.9636 0.00132347 15.7985 0 14.5834L0 5.41671C0.00132347 4.20154 0.484634 3.03652 1.34389 2.17726C2.20314 1.31801 3.36816 0.834697 4.58333 0.833374H15.4167C16.6318 0.834697 17.7969 1.31801 18.6561 2.17726C19.5154 3.03652 19.9987 4.20154 20 5.41671ZM6.66667 3.75004C6.66667 3.99727 6.73998 4.23894 6.87733 4.4445C7.01468 4.65007 7.2099 4.81028 7.43831 4.90489C7.66672 4.9995 7.91805 5.02425 8.16053 4.97602C8.40301 4.92779 8.62573 4.80874 8.80055 4.63392C8.97537 4.45911 9.09442 4.23638 9.14265 3.9939C9.19088 3.75143 9.16613 3.50009 9.07152 3.27169C8.97691 3.04328 8.81669 2.84806 8.61113 2.7107C8.40557 2.57335 8.16389 2.50004 7.91667 2.50004C7.58515 2.50004 7.2672 2.63174 7.03278 2.86616C6.79836 3.10058 6.66667 3.41852 6.66667 3.75004ZM2.5 3.75004C2.5 3.99727 2.57331 4.23894 2.71066 4.4445C2.84801 4.65007 3.04324 4.81028 3.27165 4.90489C3.50005 4.9995 3.75139 5.02425 3.99386 4.97602C4.23634 4.92779 4.45907 4.80874 4.63388 4.63392C4.8087 4.45911 4.92775 4.23638 4.97598 3.9939C5.02421 3.75143 4.99946 3.50009 4.90485 3.27169C4.81024 3.04328 4.65002 2.84806 4.44446 2.7107C4.2389 2.57335 3.99723 2.50004 3.75 2.50004C3.41848 2.50004 3.10054 2.63174 2.86612 2.86616C2.6317 3.10058 2.5 3.41852 2.5 3.75004ZM17.5 6.66671H2.5V14.5834C2.5 15.1359 2.71949 15.6658 3.11019 16.0565C3.5009 16.4472 4.0308 16.6667 4.58333 16.6667H15.4167C15.9692 16.6667 16.4991 16.4472 16.8898 16.0565C17.2805 15.6658 17.5 15.1359 17.5 14.5834V6.66671Z" fill="#EEEEEE"/>
</g>
<defs>
<clipPath id="clip0_89_4280">
<rect width="20" height="20" fill="white"/>
</clipPath>
</defs>
</svg>
