<svg width="69" height="69" viewBox="0 0 69 69" fill="none" xmlns="http://www.w3.org/2000/svg">
<g clip-path="url(#clip0_189_72)">
<path d="M0 25.875V51.75C0.00450169 55.5611 1.49942 59.2148 4.15684 61.9096C6.81425 64.6045 10.4172 66.1204 14.1753 66.125H53.8663C57.6245 66.1204 61.2274 64.6045 63.8848 61.9096C66.5423 59.2148 68.0372 55.5611 68.0417 51.75V25.875H0ZM39.691 54.625H17.0104C16.2585 54.625 15.5374 54.3221 15.0057 53.7829C14.474 53.2438 14.1753 52.5125 14.1753 51.75C14.1753 50.9875 14.474 50.2562 15.0057 49.7171C15.5374 49.1779 16.2585 48.875 17.0104 48.875H39.691C40.4429 48.875 41.164 49.1779 41.6957 49.7171C42.2273 50.2562 42.526 50.9875 42.526 51.75C42.526 52.5125 42.2273 53.2438 41.6957 53.7829C41.164 54.3221 40.4429 54.625 39.691 54.625ZM51.0312 43.125H17.0104C16.2585 43.125 15.5374 42.8221 15.0057 42.2829C14.474 41.7438 14.1753 41.0125 14.1753 40.25C14.1753 39.4875 14.474 38.7562 15.0057 38.2171C15.5374 37.6779 16.2585 37.375 17.0104 37.375H51.0312C51.7832 37.375 52.5043 37.6779 53.0359 38.2171C53.5676 38.7562 53.8663 39.4875 53.8663 40.25C53.8663 41.0125 53.5676 41.7438 53.0359 42.2829C52.5043 42.8221 51.7832 43.125 51.0312 43.125ZM68.0417 20.125V17.25C68.0372 13.4389 66.5423 9.78523 63.8848 7.09038C61.2274 4.39554 57.6245 2.87957 53.8663 2.875H14.1753C10.4172 2.87957 6.81425 4.39554 4.15684 7.09038C1.49942 9.78523 0.00450169 13.4389 0 17.25L0 20.125H68.0417ZM28.3507 8.625C28.9114 8.625 29.4596 8.79362 29.9258 9.10953C30.392 9.42543 30.7554 9.87445 30.97 10.3998C31.1845 10.9251 31.2407 11.5032 31.1313 12.0609C31.0219 12.6186 30.7519 13.1309 30.3554 13.5329C29.9589 13.935 29.4537 14.2088 28.9038 14.3198C28.3538 14.4307 27.7838 14.3738 27.2658 14.1562C26.7477 13.9386 26.3049 13.5701 25.9934 13.0973C25.6819 12.6245 25.5156 12.0686 25.5156 11.5C25.5156 10.7375 25.8143 10.0062 26.346 9.46707C26.8777 8.9279 27.5988 8.625 28.3507 8.625ZM19.8455 8.625C20.4062 8.625 20.9543 8.79362 21.4206 9.10953C21.8868 9.42543 22.2502 9.87445 22.4647 10.3998C22.6793 10.9251 22.7355 11.5032 22.6261 12.0609C22.5167 12.6186 22.2467 13.1309 21.8502 13.5329C21.4537 13.935 20.9485 14.2088 20.3986 14.3198C19.8486 14.4307 19.2786 14.3738 18.7606 14.1562C18.2425 13.9386 17.7997 13.5701 17.4882 13.0973C17.1767 12.6245 17.0104 12.0686 17.0104 11.5C17.0104 10.7375 17.3091 10.0062 17.8408 9.46707C18.3725 8.9279 19.0936 8.625 19.8455 8.625ZM11.3403 8.625C11.901 8.625 12.4491 8.79362 12.9154 9.10953C13.3816 9.42543 13.745 9.87445 13.9595 10.3998C14.1741 10.9251 14.2303 11.5032 14.1209 12.0609C14.0115 12.6186 13.7415 13.1309 13.345 13.5329C12.9485 13.935 12.4433 14.2088 11.8934 14.3198C11.3434 14.4307 10.7734 14.3738 10.2553 14.1562C9.7373 13.9386 9.29453 13.5701 8.983 13.0973C8.67148 12.6245 8.50521 12.0686 8.50521 11.5C8.50521 10.7375 8.8039 10.0062 9.33558 9.46707C9.86726 8.9279 10.5884 8.625 11.3403 8.625Z" fill="url(#paint0_linear_189_72)"/>
</g>
<defs>
<linearGradient id="paint0_linear_189_72" x1="-6.69365e-07" y1="13.5" x2="34.0208" y2="66.125" gradientUnits="userSpaceOnUse">
<stop stop-color="#6181F3"/>
<stop offset="1" stop-color="#8E30A6"/>
</linearGradient>
<clipPath id="clip0_189_72">
<rect width="68.0417" height="69" fill="white"/>
</clipPath>
</defs>
</svg>
