<svg width="59" height="59" viewBox="0 0 59 59" fill="none" xmlns="http://www.w3.org/2000/svg">
<rect width="59" height="59" rx="10" fill="url(#paint0_linear_342_26)"/>
<path d="M13.696 25.0057V23.9403C14.4962 23.9403 15.0549 23.777 15.3722 23.4503C15.6894 23.1188 15.848 22.572 15.848 21.8097V19.7713C15.848 19.0469 15.9285 18.4384 16.0895 17.946C16.2552 17.4489 16.5062 17.0511 16.8423 16.7528C17.1785 16.4545 17.6046 16.2391 18.1207 16.1065C18.6368 15.974 19.2453 15.9077 19.946 15.9077V17.5909C19.3968 17.5909 18.9683 17.6714 18.6605 17.8324C18.3527 17.9934 18.1373 18.2443 18.0142 18.5852C17.8958 18.9214 17.8366 19.3523 17.8366 19.8778V22.4631C17.8366 22.8277 17.7822 23.1662 17.6733 23.4787C17.5644 23.7865 17.3632 24.054 17.0696 24.2812C16.776 24.5085 16.357 24.6861 15.8125 24.8139C15.268 24.9418 14.5625 25.0057 13.696 25.0057ZM19.946 34.0256C19.2453 34.0256 18.6368 33.9593 18.1207 33.8267C17.6046 33.6941 17.1785 33.4787 16.8423 33.1804C16.5062 32.8821 16.2552 32.4844 16.0895 31.9872C15.9285 31.4948 15.848 30.8864 15.848 30.1619V28.1165C15.848 27.3589 15.6894 26.8144 15.3722 26.483C15.0549 26.1515 14.4962 25.9858 13.696 25.9858V24.9276C14.5625 24.9276 15.268 24.9915 15.8125 25.1193C16.357 25.2424 16.776 25.42 17.0696 25.652C17.3632 25.8793 17.5644 26.1491 17.6733 26.4616C17.7822 26.7694 17.8366 27.1056 17.8366 27.4702V30.0554C17.8366 30.5762 17.8958 31.0047 18.0142 31.3409C18.1373 31.6818 18.3527 31.9328 18.6605 32.0938C18.9683 32.2595 19.3968 32.3423 19.946 32.3423V34.0256ZM13.696 25.9858V23.9403H15.6634V25.9858H13.696ZM23.3853 31.1349C22.997 31.1349 22.6632 30.9976 22.3839 30.723C22.1045 30.4437 21.9648 30.1075 21.9648 29.7145C21.9648 29.3262 22.1045 28.9948 22.3839 28.7202C22.6632 28.4408 22.997 28.3011 23.3853 28.3011C23.7736 28.3011 24.1074 28.4408 24.3867 28.7202C24.6661 28.9948 24.8058 29.3262 24.8058 29.7145C24.8058 29.9749 24.7395 30.214 24.6069 30.4318C24.479 30.6449 24.3086 30.8153 24.0955 30.9432C23.8825 31.071 23.6457 31.1349 23.3853 31.1349ZM29.0494 31.1349C28.6611 31.1349 28.3273 30.9976 28.0479 30.723C27.7686 30.4437 27.6289 30.1075 27.6289 29.7145C27.6289 29.3262 27.7686 28.9948 28.0479 28.7202C28.3273 28.4408 28.6611 28.3011 29.0494 28.3011C29.4376 28.3011 29.7714 28.4408 30.0508 28.7202C30.3301 28.9948 30.4698 29.3262 30.4698 29.7145C30.4698 29.9749 30.4035 30.214 30.271 30.4318C30.1431 30.6449 29.9727 30.8153 29.7596 30.9432C29.5465 31.071 29.3098 31.1349 29.0494 31.1349ZM34.7134 31.1349C34.3252 31.1349 33.9914 30.9976 33.712 30.723C33.4326 30.4437 33.293 30.1075 33.293 29.7145C33.293 29.3262 33.4326 28.9948 33.712 28.7202C33.9914 28.4408 34.3252 28.3011 34.7134 28.3011C35.1017 28.3011 35.4355 28.4408 35.7148 28.7202C35.9942 28.9948 36.1339 29.3262 36.1339 29.7145C36.1339 29.9749 36.0676 30.214 35.935 30.4318C35.8072 30.6449 35.6367 30.8153 35.4237 30.9432C35.2106 31.071 34.9738 31.1349 34.7134 31.1349ZM44.4116 24.9276V25.9858C43.6114 25.9858 43.0527 26.1515 42.7354 26.483C42.4182 26.8144 42.2596 27.3589 42.2596 28.1165V30.1619C42.2596 30.8864 42.1767 31.4948 42.011 31.9872C41.85 32.4844 41.6014 32.8821 41.2653 33.1804C40.9291 33.4787 40.503 33.6941 39.9869 33.8267C39.4708 33.9593 38.8623 34.0256 38.1616 34.0256V32.3423C38.7108 32.3423 39.1393 32.2595 39.4471 32.0938C39.7549 31.9328 39.9679 31.6818 40.0863 31.3409C40.2094 31.0047 40.271 30.5762 40.271 30.0554V27.4702C40.271 27.1056 40.3254 26.7694 40.4343 26.4616C40.5432 26.1491 40.7444 25.8793 41.038 25.652C41.3316 25.42 41.7506 25.2424 42.2951 25.1193C42.8396 24.9915 43.5451 24.9276 44.4116 24.9276ZM38.1616 15.9077C38.8623 15.9077 39.4708 15.974 39.9869 16.1065C40.503 16.2391 40.9291 16.4545 41.2653 16.7528C41.6014 17.0511 41.85 17.4489 42.011 17.946C42.1767 18.4384 42.2596 19.0469 42.2596 19.7713V21.8097C42.2596 22.572 42.4182 23.1188 42.7354 23.4503C43.0527 23.777 43.6114 23.9403 44.4116 23.9403V25.0057C43.5451 25.0057 42.8396 24.9418 42.2951 24.8139C41.7506 24.6861 41.3316 24.5085 41.038 24.2812C40.7444 24.054 40.5432 23.7865 40.4343 23.4787C40.3254 23.1662 40.271 22.8277 40.271 22.4631V19.8778C40.271 19.3523 40.2094 18.9214 40.0863 18.5852C39.9679 18.2443 39.7549 17.9934 39.4471 17.8324C39.1393 17.6714 38.7108 17.5909 38.1616 17.5909V15.9077ZM44.4116 23.9403V25.9858H42.4442V23.9403H44.4116Z" fill="white"/>
<path d="M11.8565 48V41.4545H13.1307V48H11.8565ZM12.5 40.4446C12.2784 40.4446 12.0881 40.3707 11.929 40.223C11.7727 40.0724 11.6946 39.8935 11.6946 39.6861C11.6946 39.4759 11.7727 39.2969 11.929 39.1491C12.0881 38.9986 12.2784 38.9233 12.5 38.9233C12.7216 38.9233 12.9105 38.9986 13.0668 39.1491C13.2259 39.2969 13.3054 39.4759 13.3054 39.6861C13.3054 39.8935 13.2259 40.0724 13.0668 40.223C12.9105 40.3707 12.7216 40.4446 12.5 40.4446ZM14.8448 48V41.4545H16.0678V42.5199H16.1488C16.2852 42.1591 16.5082 41.8778 16.8178 41.6761C17.1275 41.4716 17.4982 41.3693 17.93 41.3693C18.3675 41.3693 18.734 41.4716 19.0295 41.6761C19.3278 41.8807 19.5479 42.1619 19.69 42.5199H19.7582C19.9144 42.1705 20.163 41.892 20.5039 41.6847C20.8448 41.4744 21.2511 41.3693 21.7227 41.3693C22.3164 41.3693 22.8008 41.5554 23.1758 41.9276C23.5536 42.2997 23.7425 42.8608 23.7425 43.6108V48H22.4684V43.7301C22.4684 43.2869 22.3477 42.9659 22.1062 42.767C21.8647 42.5682 21.5763 42.4688 21.2411 42.4688C20.8263 42.4688 20.5039 42.5966 20.2738 42.8523C20.0437 43.1051 19.9286 43.4304 19.9286 43.8281V48H18.6587V43.6491C18.6587 43.294 18.5479 43.0085 18.3263 42.7926C18.1048 42.5767 17.8164 42.4688 17.4613 42.4688C17.2198 42.4688 16.9968 42.5327 16.7923 42.6605C16.5906 42.7855 16.4272 42.9602 16.3022 43.1847C16.18 43.4091 16.119 43.669 16.119 43.9645V48H14.8448ZM25.4503 50.4545V41.4545H26.6946V42.5156H26.8011C26.875 42.3793 26.9815 42.2216 27.1207 42.0426C27.2599 41.8636 27.4531 41.7074 27.7003 41.5739C27.9474 41.4375 28.2741 41.3693 28.6804 41.3693C29.2088 41.3693 29.6804 41.5028 30.0952 41.7699C30.5099 42.0369 30.8352 42.4219 31.071 42.9247C31.3097 43.4276 31.429 44.0327 31.429 44.7401C31.429 45.4474 31.3111 46.054 31.0753 46.5597C30.8395 47.0625 30.5156 47.4503 30.1037 47.723C29.6918 47.9929 29.2216 48.1278 28.6932 48.1278C28.2955 48.1278 27.9702 48.0611 27.7173 47.9276C27.4673 47.794 27.2713 47.6378 27.1293 47.4588C26.9872 47.2798 26.8778 47.1207 26.8011 46.9815H26.7244V50.4545H25.4503ZM26.6989 44.7273C26.6989 45.1875 26.7656 45.5909 26.8991 45.9375C27.0327 46.2841 27.2259 46.5554 27.4787 46.7514C27.7315 46.9446 28.0412 47.0412 28.4077 47.0412C28.7884 47.0412 29.1065 46.9403 29.3622 46.7386C29.6179 46.5341 29.8111 46.2571 29.9418 45.9077C30.0753 45.5582 30.142 45.1648 30.142 44.7273C30.142 44.2955 30.0767 43.9077 29.946 43.5639C29.8182 43.2202 29.625 42.9489 29.3665 42.75C29.1108 42.5511 28.7912 42.4517 28.4077 42.4517C28.0384 42.4517 27.7259 42.5469 27.4702 42.7372C27.2173 42.9276 27.0256 43.1932 26.8949 43.5341C26.7642 43.875 26.6989 44.2727 26.6989 44.7273ZM35.6136 48.1321C35 48.1321 34.4645 47.9915 34.0071 47.7102C33.5497 47.429 33.1946 47.0355 32.9418 46.5298C32.6889 46.0241 32.5625 45.4332 32.5625 44.7571C32.5625 44.0781 32.6889 43.4844 32.9418 42.9759C33.1946 42.4673 33.5497 42.0724 34.0071 41.7912C34.4645 41.5099 35 41.3693 35.6136 41.3693C36.2273 41.3693 36.7628 41.5099 37.2202 41.7912C37.6776 42.0724 38.0327 42.4673 38.2855 42.9759C38.5384 43.4844 38.6648 44.0781 38.6648 44.7571C38.6648 45.4332 38.5384 46.0241 38.2855 46.5298C38.0327 47.0355 37.6776 47.429 37.2202 47.7102C36.7628 47.9915 36.2273 48.1321 35.6136 48.1321ZM35.6179 47.0625C36.0156 47.0625 36.3452 46.9574 36.6065 46.7472C36.8679 46.5369 37.0611 46.2571 37.1861 45.9077C37.3139 45.5582 37.3778 45.1733 37.3778 44.7528C37.3778 44.3352 37.3139 43.9517 37.1861 43.6023C37.0611 43.25 36.8679 42.9673 36.6065 42.7543C36.3452 42.5412 36.0156 42.4347 35.6179 42.4347C35.2173 42.4347 34.8849 42.5412 34.6207 42.7543C34.3594 42.9673 34.1648 43.25 34.0369 43.6023C33.9119 43.9517 33.8494 44.3352 33.8494 44.7528C33.8494 45.1733 33.9119 45.5582 34.0369 45.9077C34.1648 46.2571 34.3594 46.5369 34.6207 46.7472C34.8849 46.9574 35.2173 47.0625 35.6179 47.0625ZM40.087 48V41.4545H41.3185V42.4943H41.3867C41.506 42.142 41.7163 41.8651 42.0174 41.6634C42.3214 41.4588 42.6651 41.3565 43.0487 41.3565C43.1282 41.3565 43.2219 41.3594 43.3299 41.3651C43.4407 41.3707 43.5273 41.3778 43.5898 41.3864V42.6051C43.5387 42.5909 43.4478 42.5753 43.3171 42.5582C43.1864 42.5384 43.0558 42.5284 42.9251 42.5284C42.6239 42.5284 42.3555 42.5923 42.1197 42.7202C41.8867 42.8452 41.7021 43.0199 41.5657 43.2443C41.4293 43.4659 41.3612 43.7187 41.3612 44.0028V48H40.087ZM48.1346 41.4545V42.4773H44.5593V41.4545H48.1346ZM45.5181 39.8864H46.7923V46.0781C46.7923 46.3253 46.8292 46.5114 46.9031 46.6364C46.9769 46.7585 47.0721 46.8423 47.1886 46.8878C47.3079 46.9304 47.4371 46.9517 47.5763 46.9517C47.6786 46.9517 47.7681 46.9446 47.8448 46.9304C47.9215 46.9162 47.9812 46.9048 48.0238 46.8963L48.2539 47.9489C48.18 47.9773 48.0749 48.0057 47.9386 48.0341C47.8022 48.0653 47.6317 48.0824 47.4272 48.0852C47.092 48.0909 46.7795 48.0312 46.4897 47.9062C46.1999 47.7812 45.9656 47.5881 45.7866 47.3267C45.6076 47.0653 45.5181 46.7372 45.5181 46.3423V39.8864Z" fill="white"/>
<defs>
<linearGradient id="paint0_linear_342_26" x1="40.5" y1="39" x2="-14.5" y2="29" gradientUnits="userSpaceOnUse">
<stop stop-color="#551948"/>
<stop offset="0.980024" stop-color="#9E1F82"/>
</linearGradient>
</defs>
</svg>
