<svg width="69" height="56" viewBox="0 0 69 56" fill="none" xmlns="http://www.w3.org/2000/svg">
<path d="M32.5422 41.4444C32.5098 41.51 32.4775 41.5625 32.5422 41.4444V41.4444ZM59.4015 31.9288C57.2331 31.9281 55.0936 32.4333 53.1484 33.4053C52.5123 32.1038 51.8546 30.9663 51.7468 30.1131C51.6174 29.1178 51.4773 28.5272 51.6282 27.346C51.7791 26.1647 52.4584 24.4913 52.4476 24.371C52.4368 24.2507 52.2966 23.6491 50.9059 23.6381C49.5151 23.6272 48.3184 23.9116 48.1793 24.2835C47.9337 24.9631 47.7426 25.6617 47.6079 26.3725C47.3599 27.6522 44.8274 32.2241 43.3935 34.6085C42.9191 33.6788 42.5202 32.8585 42.434 32.2022C42.3046 31.2069 42.1644 30.6163 42.3154 29.435C42.4663 28.2538 43.1455 26.5803 43.1347 26.46C43.124 26.3397 42.9838 25.7381 41.5941 25.7272C40.2044 25.7163 39.0066 26.0006 38.8664 26.3725C38.7263 26.7444 38.5754 27.6194 38.295 28.4616C38.0147 29.3038 34.6413 36.9163 33.7583 38.896C33.3055 39.9022 32.9174 40.7116 32.637 41.2585C32.5939 41.346 32.5616 41.4007 32.54 41.4444C32.5724 41.3897 32.5939 41.335 32.5939 41.3569C32.3567 41.8272 32.2166 42.0897 32.2166 42.0897V42.1007C32.0333 42.4506 31.8284 42.7678 31.7314 42.7678C31.6667 42.7678 31.5266 41.8491 31.7638 40.5913C32.2705 37.9444 33.4672 33.8319 33.4564 33.6897C33.4456 33.6131 33.6828 32.9022 32.6694 32.5194C31.6883 32.1585 31.3325 32.76 31.2463 32.76C31.16 32.76 31.0953 32.9788 31.0953 32.9788C31.0953 32.9788 32.1842 28.3413 29.0048 28.3413C27.0211 28.3413 24.2611 30.5506 22.9048 32.5522C22.0531 33.0225 20.2095 34.0397 18.2689 35.1225C17.525 35.5381 16.7595 35.9647 16.0372 36.3694C15.9832 36.3147 15.9401 36.26 15.8862 36.2053C12.0276 32.0272 4.90336 29.0741 5.20523 23.4632C5.31304 21.4178 6.01382 16.0475 18.905 9.52877C29.4706 4.19127 37.9177 5.6569 39.3721 8.91627C41.4636 13.5647 34.8558 22.2163 23.8837 23.4632C19.7017 23.9335 17.5034 22.2928 16.9536 21.6803C16.3822 21.035 16.2959 21.0022 16.0803 21.1225C15.7245 21.3194 15.9509 21.8881 16.0803 22.2272C16.4037 23.0913 17.7514 24.6225 20.0467 25.3881C22.0628 26.0553 26.9661 26.4272 32.8947 24.0975C39.5554 21.4944 44.7401 14.2428 43.2199 8.17252C41.6717 2.00377 31.5891 -0.0196633 22.0552 3.41471C16.3746 5.46002 10.2314 8.67565 5.81221 12.8647C0.562824 17.8522 -0.277035 22.1944 0.067965 24.01C1.29595 30.4522 10.0482 34.6522 13.551 37.7585C13.3785 37.8569 13.2168 37.9444 13.0658 38.0319C11.3096 38.9178 4.63706 42.4616 2.96704 46.2022C1.08032 50.446 3.2797 53.4866 4.72331 53.9022C9.22879 55.171 13.8421 52.885 16.3207 49.1335C18.7993 45.3819 18.4985 40.4819 17.3557 38.2506C17.3449 38.2178 17.3234 38.196 17.3126 38.1632C17.7654 37.8897 18.229 37.6163 18.6926 37.3428C19.5863 36.8069 20.4596 36.3147 21.2251 35.8881C20.7938 37.0694 20.4812 38.4913 20.3195 40.5475C20.1254 42.9538 21.1065 46.071 22.3787 47.296C22.9393 47.8319 23.6174 47.8428 24.0379 47.8428C25.5257 47.8428 26.1942 46.596 26.937 45.1085C27.8534 43.2928 28.662 41.1819 28.662 41.1819C28.662 41.1819 27.6486 46.8913 30.4193 46.8913C31.4317 46.8913 32.4451 45.5678 32.899 44.8897V44.9007C32.899 44.9007 32.9206 44.8569 32.9745 44.7694C33.0823 44.6053 33.1362 44.5069 33.1362 44.5069V44.4741C33.5459 43.7631 34.4407 42.1335 35.7873 39.4428C37.5339 35.9647 39.2039 31.6225 39.2039 31.6225C39.3653 32.577 39.5886 33.5197 39.8723 34.4444C40.1742 35.4835 40.8103 36.621 41.317 37.7257C40.9073 38.2944 40.6594 38.6225 40.6594 38.6225C40.6602 38.6309 40.664 38.6387 40.6702 38.6444C40.3467 39.0819 39.9801 39.5522 39.6028 40.0116C38.2239 41.6741 36.5841 43.5772 36.3684 44.1241C36.1097 44.7694 36.1744 45.2506 36.6703 45.6225C37.0369 45.9069 37.6837 45.9506 38.3619 45.896C39.6017 45.8085 40.475 45.5022 40.8955 45.3053C41.6706 45.0234 42.4033 44.6331 43.0722 44.146C44.4199 43.1397 45.2392 41.696 45.1638 39.7928C45.1207 38.7428 44.7864 37.6928 44.3767 36.7085C44.4953 36.5335 44.6247 36.3475 44.7433 36.1616C46.8769 33.0006 48.5264 29.5313 48.5264 29.5313C48.6878 30.4858 48.9111 31.4285 49.1949 32.3531C49.4536 33.2391 49.9593 34.2125 50.4229 35.1641C48.4186 36.8157 47.1788 38.7297 46.7475 39.9875C45.9497 42.3172 46.575 43.3672 47.7502 43.6078C48.2785 43.7172 49.0332 43.4657 49.5938 43.225C50.4264 42.9437 51.2114 42.5342 51.9215 42.011C53.2691 41.0047 54.5726 39.5938 54.4863 37.6797C54.454 36.8157 54.2168 35.9516 53.9041 35.1203C55.5968 34.3985 57.7951 34.0047 60.5982 34.3328C66.6012 35.0438 67.7764 38.85 67.55 40.436C67.3236 42.0219 66.0621 42.9078 65.6417 43.1703C65.2212 43.4328 65.0918 43.5313 65.1242 43.7281C65.1781 44.0125 65.3722 44.0016 65.7279 43.936C66.2239 43.8485 68.875 42.6453 68.9936 39.7031C69.1661 35.9844 65.6417 31.8938 59.3983 31.9266L59.4015 31.9288ZM13.1305 47.7553C11.1479 49.9538 8.36629 50.785 7.17065 50.085C5.88768 49.3282 6.3944 46.0928 8.84067 43.75C10.3285 42.3281 12.2465 41.0157 13.5187 40.2063C13.8097 40.0313 14.2302 39.7688 14.7477 39.4516C14.834 39.3969 14.8771 39.375 14.8771 39.375C14.9741 39.3094 15.0819 39.2547 15.1897 39.1891C16.0835 42.5141 15.2221 45.4453 13.1305 47.7532V47.7553ZM27.6162 37.7585C26.9262 39.4757 25.4718 43.8507 24.5878 43.621C23.8331 43.4241 23.3695 40.0882 24.4368 36.8069C24.9759 35.1553 26.1187 33.1866 26.7979 32.421C27.8857 31.185 29.0825 30.7913 29.3628 31.2835C29.7401 31.9288 28.0475 36.6866 27.6162 37.7585ZM39.5834 43.5553C39.2923 43.7085 39.0228 43.8069 38.8934 43.7303C38.7964 43.6757 39.012 43.4678 39.012 43.4678C39.012 43.4678 40.5106 41.8382 41.1036 41.0944C41.4486 40.6569 41.8475 40.1428 42.2776 39.5741C42.2776 39.6288 42.2884 39.6835 42.2884 39.7491C42.2744 41.7069 40.4211 43.0303 39.5802 43.5553H39.5834ZM48.81 41.4225C48.5944 41.2694 48.6267 40.7553 49.3491 39.1585C49.6294 38.535 50.2752 37.485 51.3975 36.4788C51.5245 36.8597 51.5936 37.258 51.6023 37.66C51.5916 40.121 49.8558 41.0397 48.8111 41.4225H48.81Z" fill="#CC6699"/>
</svg>
