<svg width="12" height="16" viewBox="0 0 12 16" fill="none" xmlns="http://www.w3.org/2000/svg">
<path d="M5.99999 10.6667C4.94516 10.6667 3.91401 10.3539 3.03695 9.76784C2.15989 9.18181 1.4763 8.34885 1.07263 7.37431C0.668967 6.39978 0.56335 5.32742 0.769137 4.29285C0.974925 3.25829 1.48288 2.30798 2.22876 1.5621C2.97464 0.81622 3.92495 0.308269 4.95951 0.102481C5.99408 -0.103307 7.06643 0.00231083 8.04097 0.405978C9.01551 0.809646 9.84846 1.49323 10.4345 2.37029C11.0205 3.24736 11.3333 4.2785 11.3333 5.33334C11.3317 6.74734 10.7693 8.10297 9.76947 9.10282C8.76962 10.1027 7.41399 10.6651 5.99999 10.6667ZM5.99999 12C4.55558 11.9994 3.15096 11.5267 1.99999 10.654V14.3333C1.99999 14.6473 2.08867 14.9549 2.25581 15.2207C2.42296 15.4864 2.66178 15.6996 2.94477 15.8356C3.22775 15.9716 3.5434 16.0249 3.85534 15.9893C4.16729 15.9538 4.46285 15.8308 4.70799 15.6347L5.79199 14.768C5.85106 14.7208 5.9244 14.6951 5.99999 14.6951C6.07558 14.6951 6.14893 14.7208 6.20799 14.768L7.29199 15.6347C7.53713 15.8308 7.8327 15.9538 8.14464 15.9893C8.45659 16.0249 8.77223 15.9716 9.05522 15.8356C9.3382 15.6996 9.57702 15.4864 9.74417 15.2207C9.91132 14.9549 10 14.6473 9.99999 14.3333V10.654C8.84898 11.5266 7.44439 11.9993 5.99999 12Z" fill="#EEEEEE"/>
</svg>
