<svg width="69" height="42" viewBox="0 0 69 42" fill="none" xmlns="http://www.w3.org/2000/svg">
<path d="M69 7.0983C69 7.0983 64.6875 13.5793 57.2946 12.3449C49.9018 11.1104 48.6696 0 35.4241 0C19.0982 0 17.25 13.888 17.25 13.888C17.25 13.888 21.8705 7.0983 28.9554 8.33278C36.0402 9.56727 38.8125 20.6776 53.2902 20.6776C67.7679 20.6776 69 7.0983 69 7.0983Z" fill="#4CC8EF"/>
<path d="M51.75 27.7759C51.75 27.7759 47.4375 34.257 40.0446 33.0225C32.6518 31.788 31.4196 20.6776 18.1741 20.6776C1.84821 20.6776 0 34.5656 0 34.5656C0 34.5656 4.62053 27.7759 11.7054 29.0104C18.4821 30.2449 21.5625 41.3553 36.0402 41.3553C50.5179 41.3553 51.75 27.7759 51.75 27.7759Z" fill="#4CC8EF"/>
</svg>
