<svg width="23" height="23" viewBox="0 0 23 23" fill="none" xmlns="http://www.w3.org/2000/svg">
<path d="M22.0251 10.3119C21.7765 10.3119 21.5381 10.2132 21.3624 10.0374C21.1866 9.8616 21.0878 9.62319 21.0878 9.37461C21.0858 7.38653 20.2952 5.48044 18.8894 4.07465C17.4836 2.66887 15.5775 1.87823 13.5895 1.87624C13.3409 1.87624 13.1025 1.77749 12.9267 1.60171C12.7509 1.42594 12.6522 1.18753 12.6522 0.938945C12.6522 0.690359 12.7509 0.451954 12.9267 0.276177C13.1025 0.1004 13.3409 0.00164933 13.5895 0.00164933C16.0745 0.00437835 18.457 0.99276 20.2141 2.74994C21.9713 4.50712 22.9597 6.88958 22.9624 9.37461C22.9624 9.62319 22.8637 9.8616 22.6879 10.0374C22.5121 10.2132 22.2737 10.3119 22.0251 10.3119ZM19.2132 9.37461C19.2132 7.88309 18.6207 6.45266 17.5661 5.398C16.5114 4.34334 15.081 3.75083 13.5895 3.75083C13.3409 3.75083 13.1025 3.84958 12.9267 4.02536C12.7509 4.20114 12.6522 4.43954 12.6522 4.68813C12.6522 4.93671 12.7509 5.17512 12.9267 5.3509C13.1025 5.52667 13.3409 5.62542 13.5895 5.62542C14.5838 5.62542 15.5374 6.02043 16.2405 6.72353C16.9436 7.42664 17.3386 8.38026 17.3386 9.37461C17.3386 9.62319 17.4374 9.8616 17.6132 10.0374C17.789 10.2132 18.0274 10.3119 18.2759 10.3119C18.5245 10.3119 18.7629 10.2132 18.9387 10.0374C19.1145 9.8616 19.2132 9.62319 19.2132 9.37461ZM21.2594 20.7759L22.1123 19.7926C22.6552 19.248 22.96 18.5104 22.96 17.7414C22.96 16.9724 22.6552 16.2347 22.1123 15.6901C22.0832 15.661 19.8281 13.9261 19.8281 13.9261C19.2869 13.4109 18.5679 13.124 17.8207 13.1251C17.0735 13.1261 16.3553 13.415 15.8155 13.9317L14.0291 15.437C12.5708 14.8335 11.2461 13.9478 10.1311 12.8309C9.0161 11.714 8.13273 10.3878 7.53172 8.92845L9.0314 7.14759C9.54852 6.60787 9.83775 5.88962 9.83897 5.14216C9.84019 4.39469 9.55331 3.6755 9.03796 3.13409C9.03796 3.13409 7.30115 0.88177 7.27209 0.852714C6.73732 0.31447 6.01226 0.00823103 5.25356 0.00016351C4.49486 -0.00790401 3.76345 0.282848 3.21735 0.809598L2.13946 1.74689C-4.22853 9.13466 9.48411 22.7414 17.1156 22.4967C17.8862 22.5012 18.6499 22.3512 19.3616 22.0557C20.0733 21.7601 20.7186 21.3249 21.2594 20.7759Z" fill="#EEEEEE"/>
</svg>
