<svg width="146" height="49" viewBox="0 0 146 49" fill="none" xmlns="http://www.w3.org/2000/svg">
<path d="M41.4184 44.1802H39.16C31.1208 44.1802 24.6056 37.8191 24.6056 29.9702V19.0744C24.6056 11.2255 31.1208 4.86438 39.16 4.86438H41.4184C49.4575 4.86438 55.9728 11.2255 55.9728 19.0744V29.9747C55.9728 37.8191 49.4575 44.1802 41.4184 44.1802Z" fill="url(#paint0_linear_34_2241)"/>
<path d="M46.6561 20.9943C46.6561 22.8206 46.3322 24.1124 45.6843 24.8697C44.9726 25.7072 43.7042 26.1259 41.8883 26.1259H34.018C32.1748 26.1259 30.8653 25.7027 30.0851 24.8519C29.3597 24.0412 28.9947 22.7315 28.9947 20.9185V17.1188C28.9947 15.3058 29.3643 14.0006 30.1034 13.2033C30.8836 12.3524 32.1884 11.9293 34.018 11.9293H41.2222C42.9742 11.9293 44.2517 12.2144 45.0593 12.7845C45.9946 13.4572 46.4599 14.6109 46.4599 16.2457H44.6669C44.6806 15.1054 44.3429 14.3214 43.654 13.8893C43.1339 13.573 42.3126 13.4126 41.1811 13.4126C40.9621 13.4126 40.6245 13.4126 40.1774 13.4126C39.7303 13.4126 39.3881 13.4126 39.1554 13.4126H34.2142C32.0059 13.4126 30.9064 14.406 30.9064 16.3883V21.6313C30.9064 23.6002 32.0105 24.5891 34.2142 24.5891H41.6693C43.07 24.5891 43.9734 24.2327 44.3749 23.5244C44.6213 23.079 44.7444 22.1124 44.7444 20.6156H37.522V19.0744H46.6516V20.9943H46.6561Z" fill="#EEEEEE"/>
<path d="M51.1091 32.8389C51.1091 34.3668 50.5069 35.4047 49.2978 35.9482C48.504 36.3134 47.2219 36.5005 45.4425 36.5005H40.15C38.1653 36.5005 36.8148 36.2288 36.0985 35.6853C35.3046 35.0662 34.9123 33.8278 34.9123 31.9792H36.7053C36.7053 33.222 36.8787 34.0193 37.23 34.3757C37.6178 34.7677 38.4801 34.9637 39.8169 34.9637H45.7345C46.9801 34.9637 47.8378 34.839 48.3032 34.5851C48.9785 34.2198 49.3161 33.4937 49.3161 32.4068C49.3161 31.5114 48.9465 30.8789 48.2074 30.5136C47.6097 30.2241 46.6972 30.0771 45.4653 30.0771C44.9589 30.0771 44.1422 30.1038 43.0061 30.1617C41.8701 30.2196 41.0215 30.2463 40.4511 30.2463C38.7128 30.2463 37.4171 30.0013 36.5639 29.5069C35.4643 28.8743 34.9123 27.7652 34.9123 26.1793C34.9123 24.5445 35.5008 23.4443 36.6825 22.8741C37.4855 22.4954 38.8406 22.3039 40.7477 22.3039H44.8494C46.9345 22.3039 48.3625 22.5088 49.129 22.9142C50.2195 23.4977 50.7624 24.6826 50.7624 26.4644L48.9693 26.4466C48.9556 25.3864 48.6317 24.6603 47.9975 24.2728C47.5321 23.9743 46.7656 23.8229 45.7026 23.8229C45.4927 23.8229 45.1688 23.8229 44.7216 23.8229C44.2745 23.8229 43.9323 23.8229 43.6996 23.8229H41.6739C39.9082 23.8229 38.8041 23.8808 38.3661 23.9922C37.2483 24.3084 36.6916 25.0835 36.6916 26.313C36.6916 27.1994 37.0247 27.8275 37.6863 28.1928C38.2429 28.4957 39.087 28.6472 40.2185 28.6472C40.7523 28.6472 41.6328 28.6026 42.8647 28.5135C44.0966 28.4244 45.0273 28.3799 45.6478 28.3799C47.3496 28.3799 48.6271 28.6561 49.4849 29.2129C50.5662 29.9123 51.1091 31.1194 51.1091 32.8389Z" fill="#222831"/>
<path d="M20.0431 28.7942C20.3168 29.0258 20.3898 29.3109 20.2621 29.645C20.1526 29.9123 19.9244 30.0548 19.5822 30.0726C19.2902 30.0014 19.1351 29.9568 19.1169 29.939L15.1384 27.9434C11.5933 26.1526 9.26187 24.9722 8.13493 24.4065C7.76993 24.2283 7.60568 23.8942 7.64218 23.3953C7.67868 23.0746 7.88856 22.8563 8.26725 22.7316C8.70525 22.5712 9.05656 22.4197 9.33031 22.2772C9.76831 22.0634 10.4846 21.7026 11.4838 21.1858C12.483 20.6691 13.2495 20.2816 13.7879 20.0143C14.3217 19.747 15.2387 19.3238 16.5254 18.7358C16.7079 18.6467 16.8949 18.5576 17.082 18.4686C17.2736 18.3795 17.4607 18.2948 17.6386 18.2146C17.8211 18.1345 18.0036 18.0543 18.1816 17.9741C18.3641 17.8939 18.5557 17.8093 18.7519 17.7202C18.9526 17.6311 19.1351 17.542 19.2948 17.4529C19.5686 17.3282 19.8012 17.3015 20.002 17.3727C20.2575 17.4796 20.4172 17.6578 20.4811 17.9028C20.5449 18.1523 20.4765 18.3661 20.2757 18.5398C20.1662 18.6467 20.0111 18.7536 19.8104 18.8606C19.5731 18.9675 19.0758 19.1902 18.3093 19.5243C17.5474 19.8628 16.9542 20.1256 16.5391 20.3216C15.8319 20.6602 14.7597 21.1814 13.3225 21.8896C13.1947 21.9609 12.1408 22.491 10.1607 23.4844C10.1607 23.5022 10.1516 23.5111 10.1333 23.5111C10.0968 23.5289 10.0694 23.5378 10.0512 23.5378C10.0512 23.5556 10.0238 23.5824 9.96906 23.618L10.0512 23.6982C10.2337 23.8051 10.6032 24.0011 11.169 24.2817C12.6792 25.0256 13.578 25.48 13.8654 25.6404C15.3026 26.3665 16.1102 26.7763 16.2927 26.8654C16.5482 26.9901 16.9269 27.1772 17.4379 27.4222C17.9443 27.6716 18.3276 27.8676 18.5831 28.0057C18.7473 28.077 19.1534 28.2908 19.8104 28.6427C19.8971 28.6962 19.9701 28.7407 20.0431 28.7942Z" fill="#222831"/>
<path d="M119.56 16.6333C119.916 16.7847 120.053 17.0565 119.985 17.444C119.948 17.5866 119.903 17.7202 119.848 17.8449C119.793 17.9518 119.729 18.0721 119.656 18.2057C119.583 18.3394 119.506 18.4819 119.423 18.6334C119.341 18.7848 119.282 18.9051 119.246 18.9942C119.045 19.3506 118.78 19.845 118.456 20.4865C118.132 21.1279 117.827 21.7115 117.544 22.2416C117.261 22.7716 117.001 23.2706 116.768 23.7294C115.258 26.6026 114.09 28.8209 113.25 30.38C113.086 30.7186 112.598 31.6228 111.777 33.0928C111.649 33.3245 111.539 33.4937 111.448 33.5962C111.339 33.7566 111.229 33.8635 111.12 33.9169C110.864 34.0595 110.613 34.0595 110.371 33.9169C110.125 33.7744 110.002 33.5606 110.002 33.2799C110.111 32.9948 110.166 32.8478 110.166 32.8256C112.128 29.3332 114.291 25.2617 116.654 20.6112C116.745 20.4508 116.837 20.286 116.928 20.1167C117.019 19.9475 117.11 19.7782 117.202 19.6134C117.293 19.4441 117.379 19.2793 117.462 19.1189C117.544 18.9586 117.635 18.7893 117.735 18.6156C117.836 18.4374 117.922 18.277 117.995 18.1345C118.05 18.0097 118.137 17.8405 118.255 17.6311C118.374 17.4173 118.452 17.2658 118.488 17.1767C118.561 17.0164 118.616 16.9184 118.652 16.8827C118.899 16.5709 119.204 16.4863 119.56 16.6333Z" fill="#222831"/>
<path d="M136.496 25.1905C136.642 25.3865 136.642 25.5914 136.496 25.8007C136.277 26.1571 136.058 26.3754 135.844 26.4645C135.698 26.5179 135.525 26.5892 135.328 26.6783C135.128 26.7674 134.95 26.8476 134.795 26.9188C134.639 26.9901 134.461 27.0658 134.261 27.146C134.06 27.2262 133.877 27.3019 133.718 27.3732C133.408 27.5157 132.728 27.8053 131.674 28.2374C130.62 28.6739 129.812 29.0125 129.247 29.2619C128.649 29.5292 127.805 29.8989 126.723 30.38C125.642 30.8611 124.958 31.1506 124.666 31.2576C124.666 31.2754 124.52 31.3288 124.228 31.4179C123.863 31.3823 123.63 31.2041 123.521 30.8834C123.411 30.5448 123.502 30.2909 123.794 30.1127C124.013 29.9702 124.287 29.8276 124.611 29.6851C126.208 28.9768 127.39 28.4601 128.152 28.1438C128.334 28.0547 130.186 27.2663 133.713 25.774C133.841 25.7206 133.969 25.6671 134.096 25.6136L134.179 25.5335L134.096 25.4533C133.152 25.0435 132.595 24.8074 132.436 24.7361C129.621 23.5646 127.759 22.7672 126.847 22.3396C126.609 22.2148 125.711 21.8228 124.15 21.168C123.858 21.0433 123.68 20.8473 123.616 20.5845C123.553 20.3172 123.639 20.0989 123.876 19.9207C124.114 19.7426 124.369 19.698 124.638 19.7871C125.145 19.9831 125.555 20.1524 125.866 20.2949C126.176 20.4196 126.742 20.6736 127.568 21.0522C128.393 21.4353 129.037 21.7204 129.488 21.9164C129.853 22.0767 130.401 22.3084 131.135 22.6068C131.87 22.9097 132.422 23.128 132.782 23.2706C133.709 23.6804 134.799 24.1748 136.054 24.7628C136.223 24.8519 136.369 24.9945 136.496 25.1905Z" fill="#222831"/>
<path d="M77.6811 24.451C77.6811 26.9455 77.3116 28.6828 76.5724 29.6583C75.701 30.8254 74.0494 31.409 71.6084 31.409H60.2798V17.5108H71.6678C74.1589 17.5108 75.8196 18.0676 76.65 19.1813C77.3344 20.1078 77.6811 21.8629 77.6811 24.451ZM75.7694 25.2083V23.7828C75.7694 22.1747 75.5687 21.0343 75.1672 20.3617C74.6471 19.4886 73.6479 19.0521 72.1696 19.0521H62.1823V29.8677H71.8594C73.4152 29.8677 74.4828 29.4668 75.0531 28.6694C75.5322 28.0102 75.7694 26.8564 75.7694 25.2083Z" fill="#222831" fill-opacity="0.5"/>
<path d="M93.5814 31.4045H79.6613V17.5108H93.5039V19.0521H81.5684V23.4799H93.0339V25.0212H81.5684V29.8677H93.5814V31.4045Z" fill="#222831" fill-opacity="0.5"/>
<path d="M112.876 17.5108L105.07 31.4045H102.734L94.9274 17.5108H97.0581L103.902 29.7296L110.746 17.5108H112.876Z" fill="#222831" fill-opacity="0.5"/>
<defs>
<linearGradient id="paint0_linear_34_2241" x1="24.6056" y1="24.5221" x2="55.9728" y2="24.5221" gradientUnits="userSpaceOnUse">
<stop stop-color="#E94560"/>
<stop offset="1" stop-color="#FD7014"/>
</linearGradient>
</defs>
</svg>
