<svg width="145" height="49" viewBox="0 0 145 49" fill="none" xmlns="http://www.w3.org/2000/svg">
<path d="M41.0401 44.1802H38.8023C30.8366 44.1802 24.3809 37.8191 24.3809 29.9702V19.0744C24.3809 11.2255 30.8366 4.86438 38.8023 4.86438H41.0401C49.0058 4.86438 55.4616 11.2255 55.4616 19.0744V29.9747C55.4616 37.8191 49.0058 44.1802 41.0401 44.1802Z" fill="url(#paint0_linear_34_2224)"/>
<path d="M46.2301 20.9943C46.2301 22.8206 45.9091 24.1124 45.2671 24.8697C44.5619 25.7072 43.3051 26.1259 41.5058 26.1259H33.7074C31.8809 26.1259 30.5835 25.7027 29.8104 24.8519C29.0916 24.0412 28.7299 22.7315 28.7299 20.9185V17.1188C28.7299 15.3058 29.0961 14.0006 29.8285 13.2033C30.6015 12.3524 31.8945 11.9293 33.7074 11.9293H40.8458C42.5818 11.9293 43.8476 12.2144 44.6478 12.7845C45.5745 13.4572 46.0357 14.6109 46.0357 16.2457H44.259C44.2725 15.1054 43.938 14.3214 43.2554 13.8893C42.74 13.573 41.9262 13.4126 40.8051 13.4126C40.5881 13.4126 40.2535 13.4126 39.8105 13.4126C39.3674 13.4126 39.0284 13.4126 38.7978 13.4126H33.9018C31.7137 13.4126 30.6241 14.406 30.6241 16.3883V21.6313C30.6241 23.6002 31.7182 24.5891 33.9018 24.5891H41.2888C42.6767 24.5891 43.5718 24.2327 43.9697 23.5244C44.2138 23.079 44.3358 22.1124 44.3358 20.6156H37.1794V19.0744H46.2255V20.9943H46.2301Z" fill="#EEEEEE"/>
<path d="M50.6424 32.8389C50.6424 34.3668 50.0457 35.4047 48.8476 35.9482C48.061 36.3134 46.7907 36.5005 45.0275 36.5005H39.7834C37.8168 36.5005 36.4786 36.2288 35.7689 35.6853C34.9822 35.0662 34.5934 33.8278 34.5934 31.9792H36.3701C36.3701 33.222 36.5419 34.0193 36.89 34.3757C37.2743 34.7677 38.1287 34.9637 39.4533 34.9637H45.3169C46.5511 34.9637 47.401 34.839 47.8621 34.5851C48.5312 34.2198 48.8657 33.4937 48.8657 32.4068C48.8657 31.5114 48.4995 30.8789 47.7672 30.5136C47.1749 30.2241 46.2708 30.0771 45.0501 30.0771C44.5483 30.0771 43.7391 30.1038 42.6134 30.1617C41.4877 30.2196 40.6468 30.2463 40.0817 30.2463C38.3593 30.2463 37.0754 30.0013 36.23 29.5069C35.1405 28.8743 34.5934 27.7652 34.5934 26.1793C34.5934 24.5445 35.1766 23.4443 36.3475 22.8741C37.1432 22.4954 38.4859 22.3039 40.3756 22.3039H44.4398C46.5058 22.3039 47.9209 22.5088 48.6804 22.9142C49.7608 23.4977 50.2988 24.6826 50.2988 26.4644L48.5221 26.4466C48.5086 25.3864 48.1876 24.6603 47.5592 24.2728C47.0981 23.9743 46.3386 23.8229 45.2852 23.8229C45.0773 23.8229 44.7563 23.8229 44.3132 23.8229C43.8702 23.8229 43.5311 23.8229 43.3006 23.8229H41.2933C39.5438 23.8229 38.4497 23.8808 38.0157 23.9922C36.9081 24.3084 36.3566 25.0835 36.3566 26.313C36.3566 27.1994 36.6866 27.8275 37.3421 28.1928C37.8937 28.4957 38.73 28.6472 39.8512 28.6472C40.3801 28.6472 41.2526 28.6026 42.4733 28.5135C43.6939 28.4244 44.6161 28.3799 45.231 28.3799C46.9172 28.3799 48.1831 28.6561 49.033 29.2129C50.1044 29.9123 50.6424 31.1194 50.6424 32.8389Z" fill="#222831"/>
<path d="M19.86 28.7942C20.1313 29.0258 20.2036 29.3109 20.077 29.645C19.9685 29.9123 19.7425 30.0548 19.4034 30.0726C19.1141 30.0014 18.9604 29.9568 18.9423 29.939L15.0001 27.9434C11.4874 26.1526 9.17727 24.9722 8.06063 24.4065C7.69896 24.2283 7.53621 23.8942 7.57238 23.3953C7.60854 23.0746 7.8165 22.8563 8.19173 22.7316C8.62573 22.5712 8.97383 22.4197 9.24508 22.2772C9.67908 22.0634 10.3889 21.7026 11.3789 21.1858C12.369 20.6691 13.1285 20.2816 13.6619 20.0143C14.1909 19.747 15.0996 19.3238 16.3744 18.7358C16.5553 18.6467 16.7406 18.5576 16.926 18.4686C17.1159 18.3795 17.3012 18.2948 17.4775 18.2146C17.6584 18.1345 17.8392 18.0543 18.0155 17.9741C18.1963 17.8939 18.3862 17.8093 18.5806 17.7202C18.7795 17.6311 18.9604 17.542 19.1186 17.4529C19.3898 17.3282 19.6204 17.3015 19.8193 17.3727C20.0725 17.4796 20.2307 17.6578 20.294 17.9028C20.3573 18.1523 20.2895 18.3661 20.0906 18.5398C19.9821 18.6467 19.8284 18.7536 19.6294 18.8606C19.3944 18.9675 18.9016 19.1902 18.1421 19.5243C17.3871 19.8628 16.7994 20.1256 16.388 20.3216C15.6873 20.6602 14.6249 21.1814 13.2008 21.8896C13.0742 21.9609 12.0299 22.491 10.0679 23.4844C10.0679 23.5022 10.0588 23.5111 10.0408 23.5111C10.0046 23.5289 9.97746 23.5378 9.95938 23.5378C9.95938 23.5556 9.93225 23.5824 9.878 23.618L9.95938 23.6982C10.1402 23.8051 10.5064 24.0011 11.067 24.2817C12.5634 25.0256 13.454 25.48 13.7388 25.6404C15.1629 26.3665 15.963 26.7763 16.1439 26.8654C16.397 26.9901 16.7723 27.1772 17.2786 27.4222C17.7804 27.6716 18.1602 27.8676 18.4133 28.0057C18.5761 28.077 18.9784 28.2908 19.6294 28.6427C19.7153 28.6962 19.7877 28.7407 19.86 28.7942Z" fill="#EEEEEE"/>
<path d="M118.468 16.6333C118.821 16.7847 118.957 17.0565 118.889 17.444C118.853 17.5866 118.808 17.7202 118.753 17.8449C118.699 17.9518 118.636 18.0721 118.563 18.2057C118.491 18.3394 118.414 18.4819 118.333 18.6334C118.251 18.7848 118.193 18.9051 118.157 18.9942C117.958 19.3506 117.695 19.845 117.374 20.4865C117.053 21.1279 116.751 21.7115 116.47 22.2416C116.19 22.7716 115.932 23.2706 115.702 23.7294C114.205 26.6026 113.048 28.8209 112.216 30.38C112.053 30.7186 111.57 31.6228 110.756 33.0928C110.629 33.3245 110.521 33.4937 110.43 33.5962C110.322 33.7566 110.213 33.8635 110.105 33.9169C109.852 34.0595 109.603 34.0595 109.364 33.9169C109.119 33.7744 108.997 33.5606 108.997 33.2799C109.106 32.9948 109.16 32.8478 109.16 32.8256C111.104 29.3332 113.247 25.2617 115.589 20.6112C115.679 20.4508 115.77 20.286 115.86 20.1167C115.95 19.9475 116.041 19.7782 116.131 19.6134C116.222 19.4441 116.308 19.2793 116.389 19.1189C116.47 18.9586 116.561 18.7893 116.66 18.6156C116.76 18.4374 116.845 18.277 116.918 18.1345C116.972 18.0097 117.058 17.8405 117.175 17.6311C117.293 17.4173 117.37 17.2658 117.406 17.1767C117.478 17.0164 117.533 16.9184 117.569 16.8827C117.813 16.5709 118.116 16.4863 118.468 16.6333Z" fill="#EEEEEE"/>
<path d="M135.25 25.1905C135.394 25.3865 135.394 25.5914 135.25 25.8007C135.033 26.1571 134.816 26.3754 134.603 26.4645C134.459 26.5179 134.287 26.5892 134.092 26.6783C133.894 26.7674 133.717 26.8476 133.564 26.9188C133.41 26.9901 133.234 27.0658 133.035 27.146C132.836 27.2262 132.655 27.3019 132.497 27.3732C132.189 27.5157 131.516 27.8053 130.471 28.2374C129.427 28.6739 128.627 29.0125 128.066 29.2619C127.474 29.5292 126.638 29.8989 125.566 30.38C124.495 30.8611 123.817 31.1506 123.527 31.2576C123.527 31.2754 123.383 31.3288 123.093 31.4179C122.732 31.3823 122.501 31.2041 122.393 30.8834C122.284 30.5448 122.374 30.2909 122.664 30.1127C122.881 29.9702 123.152 29.8276 123.473 29.6851C125.055 28.9768 126.226 28.4601 126.981 28.1438C127.162 28.0547 128.997 27.2663 132.492 25.774C132.619 25.7206 132.745 25.6671 132.872 25.6136L132.953 25.5335L132.872 25.4533C131.936 25.0435 131.384 24.8074 131.226 24.7361C128.437 23.5646 126.592 22.7672 125.688 22.3396C125.453 22.2148 124.563 21.8228 123.016 21.168C122.727 21.0433 122.551 20.8473 122.487 20.5845C122.424 20.3172 122.51 20.0989 122.745 19.9207C122.98 19.7426 123.233 19.698 123.5 19.7871C124.002 19.9831 124.409 20.1524 124.716 20.2949C125.024 20.4196 125.584 20.6736 126.403 21.0522C127.221 21.4353 127.858 21.7204 128.306 21.9164C128.667 22.0767 129.21 22.3084 129.938 22.6068C130.666 22.9097 131.213 23.128 131.57 23.2706C132.488 23.6804 133.568 24.1748 134.811 24.7628C134.979 24.8519 135.123 24.9945 135.25 25.1905Z" fill="#EEEEEE"/>
<path d="M76.9717 24.451C76.9717 26.9455 76.6055 28.6828 75.8731 29.6583C75.0097 30.8254 73.3731 31.409 70.9545 31.409H59.7292V17.5108H71.0133C73.4816 17.5108 75.1272 18.0676 75.95 19.1813C76.6281 20.1078 76.9717 21.8629 76.9717 24.451ZM75.0775 25.2083V23.7828C75.0775 22.1747 74.8786 21.0343 74.4807 20.3617C73.9654 19.4886 72.9753 19.0521 71.5105 19.0521H61.6144V29.8677H71.2031C72.7447 29.8677 73.8026 29.4668 74.3677 28.6694C74.8424 28.0102 75.0775 26.8564 75.0775 25.2083Z" fill="#EEEEEE"/>
<path d="M92.7268 31.4045H78.9337V17.5108H92.65V19.0521H80.8235V23.4799H92.1843V25.0212H80.8235V29.8677H92.7268V31.4045Z" fill="#EEEEEE"/>
<path d="M111.845 17.5108L104.11 31.4045H101.796L94.0605 17.5108H96.1717L102.953 29.7296L109.734 17.5108H111.845Z" fill="#EEEEEE"/>
<defs>
<linearGradient id="paint0_linear_34_2224" x1="24.3809" y1="24.5221" x2="55.4616" y2="24.5221" gradientUnits="userSpaceOnUse">
<stop stop-color="#E94560"/>
<stop offset="1" stop-color="#FD7014"/>
</linearGradient>
</defs>
</svg>
