<svg width="33" height="42" viewBox="0 0 33 42" fill="none" xmlns="http://www.w3.org/2000/svg">
<path d="M17.688 41.7436H15.312C6.8544 41.7436 0 34.9897 0 26.6561V15.0875C0 6.75389 6.8544 0 15.312 0H17.688C26.1456 0 33 6.75389 33 15.0875V26.6609C33 34.9897 26.1456 41.7436 17.688 41.7436Z" fill="url(#paint0_linear_34_2266)"/>
<path d="M23.1984 17.126C23.1984 19.0651 22.8576 20.4367 22.176 21.2408C21.4272 22.1299 20.0928 22.5745 18.1824 22.5745H9.90237C7.96317 22.5745 6.58557 22.1252 5.76477 21.2218C5.00157 20.361 4.61757 18.9705 4.61757 17.0456V13.0112C4.61757 11.0863 5.00637 9.70048 5.78397 8.85388C6.60477 7.95052 7.97757 7.50121 9.90237 7.50121H17.4816C19.3248 7.50121 20.6688 7.80391 21.5184 8.4093C22.5024 9.12347 22.992 10.3484 22.992 12.0842H21.1056C21.12 10.8734 20.7648 10.041 20.04 9.58224C19.4928 9.24644 18.6288 9.07617 17.4384 9.07617C17.208 9.07617 16.8528 9.07617 16.3824 9.07617C15.912 9.07617 15.552 9.07617 15.3072 9.07617H10.1088C7.78557 9.07617 6.62877 10.1309 6.62877 12.2356V17.8023C6.62877 19.8928 7.79037 20.9428 10.1088 20.9428H17.952C19.4256 20.9428 20.376 20.5644 20.7984 19.8124C21.0576 19.3394 21.1872 18.3131 21.1872 16.724H13.5888V15.0875H23.1936V17.126H23.1984Z" fill="#EEEEEE"/>
<path d="M27.8832 29.702C27.8832 31.3243 27.2496 32.4263 25.9776 33.0033C25.1424 33.3911 23.7936 33.5898 21.9216 33.5898H16.3536C14.2656 33.5898 12.8448 33.3013 12.0912 32.7243C11.256 32.0668 10.8432 30.752 10.8432 28.7892H12.7296C12.7296 30.1088 12.912 30.9554 13.2816 31.3337C13.6896 31.75 14.5968 31.9581 16.0032 31.9581H22.2288C23.5392 31.9581 24.4416 31.8256 24.9312 31.556C25.6416 31.1682 25.9968 30.3973 25.9968 29.2433C25.9968 28.2926 25.608 27.621 24.8304 27.2332C24.2016 26.9257 23.2416 26.7697 21.9456 26.7697C21.4128 26.7697 20.5536 26.798 19.3584 26.8595C18.1632 26.921 17.2704 26.9494 16.6704 26.9494C14.8416 26.9494 13.4784 26.6893 12.5808 26.1643C11.424 25.4927 10.8432 24.315 10.8432 22.6313C10.8432 20.8955 11.4624 19.7273 12.7056 19.1219C13.5504 18.7199 14.976 18.5165 16.9824 18.5165H21.2976C23.4912 18.5165 24.9936 18.734 25.8 19.1644C26.9472 19.784 27.5184 21.0421 27.5184 22.9339L25.632 22.915C25.6176 21.7894 25.2768 21.0185 24.6096 20.607C24.12 20.2901 23.3136 20.1293 22.1952 20.1293C21.9744 20.1293 21.6336 20.1293 21.1632 20.1293C20.6928 20.1293 20.3328 20.1293 20.088 20.1293H17.9568C16.0992 20.1293 14.9376 20.1908 14.4768 20.309C13.3008 20.6448 12.7152 21.4678 12.7152 22.7731C12.7152 23.7143 13.0656 24.3812 13.7616 24.769C14.3472 25.0907 15.2352 25.2515 16.4256 25.2515C16.9872 25.2515 17.9136 25.2042 19.2096 25.1096C20.5056 25.015 21.4848 24.9677 22.1376 24.9677C23.928 24.9677 25.272 25.2609 26.1744 25.8521C27.312 26.5947 27.8832 27.8764 27.8832 29.702Z" fill="#222831"/>
<defs>
<linearGradient id="paint0_linear_34_2266" x1="2.34343e-07" y1="20.8716" x2="33" y2="20.8716" gradientUnits="userSpaceOnUse">
<stop stop-color="#E94560"/>
<stop offset="1" stop-color="#FD7014"/>
</linearGradient>
</defs>
</svg>
